<svg width="747" height="747" viewBox="0 0 747 747" fill="none" xmlns="http://www.w3.org/2000/svg">
<g clip-path="url(#clip0_107_301)">
<path d="M260.355 206.056C259.887 206.113 259.419 206.106 258.951 206C251.218 207.792 243.856 210.614 236.887 214.5C236.158 214.91 235.642 215.954 236.309 216.708C244.661 226.147 252.408 236.08 259.619 246.457C260.437 247.642 262.04 246.696 261.999 245.455C261.786 239.162 261.58 232.863 261.359 226.57C261.256 223.537 261.153 220.511 261.043 217.477C260.947 214.945 260.486 211.982 260.685 209.301C260.534 208.222 260.431 207.143 260.355 206.056Z" fill="#939393"/>
<path d="M634.016 554.405C628.899 547.822 623.801 541.23 618.684 534.647C616.219 531.481 613.763 528.306 611.289 525.141C609.225 522.499 606.424 519.688 604.556 516.653C603.557 515.617 602.596 514.534 601.671 513.432C601.195 513.861 600.681 514.235 600.084 514.487C592.969 522.555 587.049 531.425 582.398 541.136C581.913 542.154 582.156 543.685 583.482 543.965C599.981 547.458 616.21 551.958 632.177 557.365C633.998 557.981 635.025 555.703 634.016 554.395V554.405Z" fill="#333333"/>
<path d="M372.894 183.951C368.742 174.08 364.529 164.24 360.261 154.416C360.191 154.26 360.098 154.128 359.998 154.018C359.657 153.13 358.355 152.662 357.581 153.285C350.594 158.938 343.879 164.895 337.427 171.156C336.497 172.061 337.218 173.566 338.325 173.831C349.603 176.505 360.431 180.528 370.748 185.854C371.872 186.431 373.421 185.199 372.894 183.951Z" fill="white"/>
<path d="M0 77.7814C5.08894 79.8076 10.0845 82.0673 14.9774 84.5791C16.3313 85.2701 18.1988 83.7948 17.5638 82.3008C12.5589 70.4795 7.47934 58.6955 2.33437 46.9303C2.25034 46.7435 2.13829 46.5848 2.0169 46.4541C1.7181 45.6884 0.8217 45.1935 0 45.2495V77.7814Z" fill="#F0FF00"/>
<path d="M746.104 45.5763C737.681 52.346 729.586 59.4799 721.808 66.9779C720.687 68.061 721.555 69.8632 722.891 70.1806C731.136 72.1228 739.175 74.6626 747 77.7814V45.2495C746.683 45.2682 746.365 45.3709 746.104 45.5763Z" fill="#F0FF00"/>
<path d="M154.694 217.732C148.634 213.203 142.294 209.123 135.553 205.742C133.891 204.585 132.238 203.436 130.576 202.278C129.502 201.531 128.027 202.316 127.69 203.445C125.487 210.673 124.114 218.021 123.507 225.557C123.376 227.2 125.253 227.77 126.467 227.247C135.282 223.446 145.17 224.081 154.246 221.168C155.908 220.636 155.983 218.694 154.704 217.732H154.694Z" fill="#333333"/>
<path d="M38.6665 11.4851C38.0876 13.1285 39.5816 14.3704 41.1223 13.9222C48.3962 11.84 55.474 9.2628 62.253 5.93865C64.1765 5.31304 66.1001 4.69676 68.0236 4.07115C69.2655 3.66964 69.5363 2.0169 68.8453 1.06448C68.5839 0.700312 68.3131 0.354825 68.0516 0H44.2597C42.1774 3.72566 40.0858 7.45133 38.6665 11.4851Z" fill="#333333"/>
<path d="M112.087 65.2131C115.243 60.451 118.399 55.6889 121.556 50.9267C122.415 49.6288 121.845 48.2095 120.36 47.808C120.164 47.752 119.968 47.696 119.781 47.6399C119.781 47.6399 119.781 47.6399 119.772 47.6399C112.461 43.5595 104.832 38.4518 96.6804 36.2949C94.953 35.8373 94.0846 37.9943 94.8503 39.2549C99.8178 47.4812 105.196 55.7449 108.81 64.6715C109.305 65.8854 111.256 66.4924 112.097 65.2318L112.087 65.2131Z" fill="#939393"/>
<path d="M167.776 51.1135C170.372 54.9979 172.734 59.0503 174.723 63.2802C175.227 64.354 176.927 64.4941 177.693 63.6631C180.027 61.1326 182.184 58.4527 184.07 55.5674C185.163 53.9054 187.702 51.0014 187.235 48.8258C186.722 46.454 184.219 46.8742 182.427 47.145C178.122 47.7893 173.817 47.9014 169.485 47.5745C168.122 47.4718 167.496 48.695 167.664 49.8062C167.468 50.1704 167.459 50.6372 167.785 51.1228L167.776 51.1135Z" fill="#333333"/>
<path d="M202.698 137.336C198.086 138.092 193.454 138.41 188.776 138.176C185.704 138.027 183.388 137.952 180.587 139.325C179.411 139.894 179.401 141.501 180.195 142.36C180.512 142.705 180.811 143.051 181.119 143.405C181.147 143.48 181.185 143.555 181.231 143.629C185.013 149.82 188.851 155.974 192.661 162.146C193.566 163.621 195.565 163.182 196.134 161.698C198.926 154.461 201.802 147.271 204.893 140.165C205.593 138.559 204.444 137.056 202.708 137.345L202.698 137.336Z" fill="white"/>
<path d="M608.375 121.957C604.435 112.75 599.552 104.02 593.613 95.9428C592.866 94.925 591.092 94.5889 590.41 95.9428C585.667 105.402 581.577 115.178 578.785 125.403C578.486 126.486 579.327 127.167 580.195 127.177C580.503 127.737 581.035 128.129 581.81 128.026C590.093 126.943 598.375 125.907 606.667 124.908C608.245 124.721 609.001 123.423 608.375 121.957Z" fill="#F0FF00"/>
<path d="M407.05 258.35C408.021 259.723 410.094 259.555 410.635 257.883C411.308 255.801 412.017 253.728 412.718 251.646C413.651 249.358 414.398 246.996 415.08 244.624C416.303 241.066 417.554 237.509 418.834 233.96C419.02 233.428 418.964 232.98 418.768 232.616C418.778 232.578 418.796 232.55 418.806 232.513C419.357 231.094 417.723 229.768 416.415 230.141C409.16 232.214 401.401 232.933 393.968 234.147C392.745 234.343 392.072 236.08 392.773 237.079C395.789 241.402 398.805 245.716 401.83 250.03C402.549 253.112 405.378 255.969 407.068 258.35H407.05Z" fill="#F0FF00"/>
<path d="M252.785 5.73322C251.524 8.62785 252.085 12.615 252.01 15.5283C251.963 17.209 253.728 18.3108 255.166 17.3024C256.959 16.0325 258.761 14.7999 260.563 13.5487C262.683 12.2695 264.69 10.8315 266.66 9.3375C269.77 7.21789 272.898 5.10761 276.045 3.03469C276.511 2.72655 276.745 2.32504 276.801 1.91419C276.829 1.89551 276.857 1.87684 276.885 1.85816C277.548 1.43798 277.725 0.690975 277.576 0H252.972C252.916 1.91419 252.85 3.81904 252.794 5.73322H252.785Z" fill="#F0FF00"/>
<path d="M276.371 745.525C269.321 742.845 262.664 738.783 255.978 735.309C254.876 734.74 253.308 735.73 253.27 736.934C253.168 740.286 253.065 743.648 252.962 747H277.566C277.426 746.356 276.997 745.758 276.381 745.525H276.371Z" fill="#F0FF00"/>
<path d="M669.069 224.67C665.129 215.463 660.245 206.732 654.307 198.655C653.56 197.638 651.785 197.301 651.104 198.655C646.36 208.114 642.27 217.891 639.479 228.115C639.18 229.198 640.02 229.88 640.889 229.889C641.197 230.45 641.729 230.842 642.504 230.739C650.786 229.656 659.069 228.619 667.36 227.62C668.938 227.434 669.695 226.136 669.069 224.67Z" fill="#939393"/>
<path d="M565.395 242.607C559.335 238.078 552.995 233.998 546.253 230.618C544.591 229.46 542.938 228.311 541.276 227.153C540.202 226.406 538.727 227.191 538.391 228.321C536.187 235.548 534.824 242.896 534.208 250.432C534.077 252.075 535.954 252.645 537.168 252.122C545.982 248.321 555.871 248.956 564.947 246.043C566.609 245.511 566.684 243.569 565.404 242.607H565.395Z" fill="#F0FF00"/>
<path d="M522.069 9.12274C522.573 10.1966 524.273 10.3366 525.038 9.50558C527.373 6.97511 529.53 4.29525 531.416 1.40996C531.677 1.00845 532.032 0.5229 532.406 0H517.083C518.913 2.95065 520.594 5.98534 522.069 9.12274Z" fill="#939393"/>
<path d="M53.7747 731.36C52.5421 730.258 50.9548 731.406 50.6373 732.695C49.3674 737.831 46.8182 742.415 44.2598 747H68.0517C63.8218 741.295 59.069 736.103 53.7747 731.36Z" fill="#333333"/>
<path d="M534.572 741.659C534.058 739.287 531.556 739.707 529.763 739.978C525.458 740.622 521.154 740.735 516.821 740.408C515.458 740.305 514.832 741.528 515 742.639C514.804 743.004 514.795 743.47 515.122 743.956C515.794 744.955 516.448 745.973 517.083 747H532.406C533.563 745.375 534.936 743.312 534.572 741.659Z" fill="#939393"/>
<path d="M284.364 146.235C280.424 137.028 275.54 128.297 269.602 120.22C268.855 119.203 267.081 118.866 266.399 120.22C261.655 129.679 257.566 139.456 254.774 149.68C254.475 150.763 255.315 151.445 256.184 151.454C256.492 152.014 257.024 152.407 257.799 152.304C266.081 151.221 274.364 150.184 282.655 149.185C284.234 148.998 284.99 147.701 284.364 146.235Z" fill="#333333"/>
<path d="M404.006 88.8744C397.946 84.3457 391.606 80.2652 384.864 76.885C383.202 75.7272 381.549 74.5786 379.887 73.4208C378.813 72.6738 377.338 73.4581 377.002 74.588C374.798 81.8152 373.425 89.1638 372.818 96.6992C372.688 98.3426 374.565 98.9122 375.778 98.3893C384.593 94.5889 394.482 95.2239 403.558 92.3106C405.22 91.7783 405.294 89.8361 404.015 88.8744H404.006Z" fill="#F0FF00"/>
<path d="M495.896 57.7244C499.678 63.9152 503.515 70.0686 507.325 76.2407C508.231 77.716 510.229 77.2772 510.799 75.7925C513.59 68.5559 516.466 61.3661 519.557 54.2602C520.257 52.6542 519.109 51.1508 517.372 51.4403C512.759 52.1966 508.128 52.5141 503.45 52.2807C500.378 52.1313 498.062 52.0566 495.261 53.4292C494.084 53.9988 494.075 55.6048 494.869 56.4639C495.186 56.8094 495.485 57.1548 495.793 57.5097C495.821 57.5844 495.859 57.6591 495.905 57.7338L495.896 57.7244Z" fill="white"/>
<path d="M670.74 4.3326C671.646 5.80792 673.644 5.36906 674.214 3.8844C674.718 2.58649 675.222 1.28857 675.727 0H668.051C668.948 1.44731 669.844 2.89462 670.74 4.3326Z" fill="#333333"/>
<path d="M682.973 729.352C683.673 727.746 682.525 726.243 680.788 726.532C676.175 727.289 671.544 727.606 666.866 727.373C663.793 727.223 661.478 727.148 658.677 728.521C657.5 729.091 657.491 730.697 658.284 731.556C658.602 731.901 658.901 732.247 659.209 732.602C659.237 732.676 659.274 732.751 659.321 732.826C662.215 737.56 665.147 742.285 668.07 747H675.745C678.061 741.08 680.452 735.188 682.991 729.352H682.973Z" fill="#333333"/>
<path d="M219.999 559.719C219.819 554.501 219.644 549.277 219.458 544.058C219.371 541.543 219.283 539.033 219.19 536.518C219.109 534.418 218.719 531.961 218.887 529.738C218.759 528.843 218.672 527.948 218.608 527.047C218.212 527.094 217.816 527.088 217.42 527C210.877 528.486 204.648 530.826 198.75 534.049C198.133 534.388 197.697 535.254 198.261 535.88C205.329 543.707 211.884 551.944 217.985 560.549C218.678 561.532 220.034 560.748 219.999 559.719Z" fill="#939393"/>
<path d="M319.903 484.137C316.097 475.164 312.235 466.218 308.322 457.287C308.259 457.146 308.173 457.025 308.081 456.926C307.769 456.118 306.576 455.692 305.866 456.26C299.462 461.398 293.306 466.814 287.391 472.506C286.539 473.328 287.2 474.696 288.215 474.937C298.553 477.368 308.479 481.026 317.936 485.867C318.966 486.391 320.386 485.272 319.903 484.137Z" fill="white"/>
<path d="M5.38774 324.189C6.06004 322.106 6.76969 320.033 7.47 317.951C8.40375 315.664 9.15075 313.301 9.83239 310.929C11.0556 307.372 12.3068 303.814 13.5861 300.266C13.7728 299.734 13.7168 299.286 13.5207 298.921C13.53 298.884 13.5487 298.856 13.5581 298.819C14.109 297.399 12.4749 296.073 11.1677 296.447C7.53536 297.483 3.78169 298.184 0 298.772V322.303C0.644288 323.124 1.27924 323.918 1.80214 324.656C2.77324 326.028 4.84616 325.86 5.38774 324.189Z" fill="#F0FF00"/>
<path d="M734.516 303.385C737.532 307.708 740.548 312.022 743.573 316.336C744.068 318.455 745.571 320.472 747.009 322.303V298.772C743.237 299.36 739.437 299.846 735.72 300.453C734.497 300.649 733.825 302.386 734.525 303.385H734.516Z" fill="#F0FF00"/>
<path d="M155.301 308.866C156.02 311.947 158.849 314.804 160.54 317.186C161.511 318.558 163.584 318.39 164.125 316.719C164.797 314.636 165.507 312.563 166.207 310.481C167.141 308.194 167.888 305.831 168.57 303.459C169.793 299.902 171.044 296.344 172.323 292.796C172.51 292.264 172.454 291.816 172.258 291.451C172.267 291.414 172.286 291.386 172.295 291.349C172.846 289.929 171.212 288.603 169.905 288.977C162.65 291.05 154.89 291.769 147.458 292.983C146.234 293.179 145.562 294.916 146.262 295.915C149.278 300.238 152.294 304.552 155.32 308.866H155.301Z" fill="#F0FF00"/>
<path d="M706.419 364.732C702.479 355.525 697.595 346.795 691.657 338.718C690.91 337.7 689.135 337.364 688.454 338.718C683.71 348.177 679.621 357.953 676.829 368.178C676.53 369.261 677.37 369.942 678.239 369.952C678.547 370.512 679.079 370.904 679.854 370.801C688.136 369.718 696.419 368.682 704.71 367.683C706.289 367.496 707.045 366.198 706.419 364.732Z" fill="#F0FF00"/>
<path d="M699.883 498.258C695.943 489.052 691.059 480.321 685.12 472.244C684.373 471.226 682.599 470.89 681.918 472.244C677.174 481.703 673.084 491.479 670.293 501.704C669.994 502.787 670.834 503.469 671.702 503.478C672.011 504.038 672.543 504.43 673.318 504.328C681.6 503.245 689.883 502.208 698.174 501.209C699.752 501.022 700.509 499.724 699.883 498.258Z" fill="#F0FF00"/>
<path d="M55.5021 524.179C64.3167 520.379 74.2051 521.014 83.2811 518.101C84.9432 517.568 85.0179 515.626 83.7387 514.664C77.6786 510.136 71.3385 506.055 64.5968 502.675C62.9347 501.517 61.282 500.369 59.6199 499.211C58.5461 498.464 57.0708 499.248 56.7346 500.378C54.531 507.605 53.1677 514.954 52.5514 522.489C52.4207 524.133 54.2975 524.702 55.5114 524.179H55.5021Z" fill="white"/>
<path d="M49.5261 249.227C56.8 247.145 63.8778 244.568 70.6568 241.244C72.5804 240.618 74.5039 240.002 76.4274 239.376C77.6693 238.975 77.9401 237.322 77.2491 236.369C72.8231 230.244 67.8089 224.707 62.1784 219.665C60.9458 218.563 59.3585 219.711 59.041 221C56.7346 230.319 50.2451 237.807 47.0703 246.79C46.4914 248.434 47.9854 249.675 49.5261 249.227Z" fill="#939393"/>
<path d="M105.224 350.847C107.82 354.732 110.183 358.784 112.171 363.014C112.676 364.088 114.375 364.228 115.141 363.397C117.475 360.866 119.632 358.187 121.518 355.301C122.611 353.639 125.151 350.735 124.684 348.56C124.17 346.188 121.668 346.608 119.875 346.879C115.57 347.523 111.266 347.635 106.924 347.308C105.561 347.206 104.935 348.429 105.103 349.54C104.907 349.904 104.898 350.371 105.224 350.857V350.847Z" fill="#333333"/>
<path d="M117.699 461.422C120.491 454.185 123.367 446.995 126.458 439.89C127.158 438.284 126.01 436.78 124.273 437.07C119.66 437.826 115.019 438.144 110.351 437.91C107.279 437.761 104.963 437.686 102.162 439.059C100.985 439.628 100.976 441.234 101.769 442.093C102.087 442.439 102.386 442.784 102.694 443.139C102.722 443.214 102.759 443.288 102.806 443.363C106.588 449.554 110.425 455.707 114.235 461.879C115.141 463.355 117.139 462.916 117.709 461.431L117.699 461.422Z" fill="#F0FF00"/>
<path d="M484.834 314C485.156 313.858 485.489 313.757 485.842 313.727C490.934 310.787 495.546 307.229 499.635 303.024C500.065 302.583 500.203 301.753 499.558 301.384C491.574 296.779 483.907 291.703 476.527 286.197C475.688 285.57 474.756 286.567 475.058 287.412C476.588 291.668 478.109 295.929 479.639 300.19C480.376 302.239 481.108 304.289 481.85 306.338C482.469 308.049 483.442 309.972 483.892 311.849C484.235 312.553 484.547 313.271 484.839 313.995L484.834 314Z" fill="#939393"/>
<path d="M614.062 410.757C617.078 415.08 620.094 419.394 623.12 423.708C623.839 426.789 626.668 429.646 628.358 432.027C629.329 433.4 631.402 433.232 631.943 431.561C632.616 429.478 633.325 427.405 634.026 425.323C634.959 423.035 635.706 420.673 636.388 418.301C637.611 414.744 638.863 411.186 640.142 407.638C640.329 407.106 640.272 406.657 640.076 406.293C640.086 406.256 640.104 406.228 640.114 406.191C640.665 404.771 639.031 403.445 637.723 403.819C630.468 405.892 622.709 406.611 615.276 407.825C614.053 408.021 613.381 409.758 614.081 410.757H614.062Z" fill="white"/>
<path d="M527.846 429.758C525.076 423.34 521.642 417.254 517.467 411.623C516.942 410.914 515.695 410.679 515.216 411.623C511.881 418.217 509.006 425.032 507.043 432.16C506.833 432.915 507.424 433.39 508.035 433.396C508.251 433.787 508.625 434.06 509.17 433.989C514.993 433.234 520.815 432.511 526.645 431.815C527.754 431.684 528.286 430.78 527.846 429.758Z" fill="white"/>
<path d="M485.83 579.42C494.645 575.62 504.533 576.255 513.609 573.341C515.271 572.809 515.346 570.867 514.067 569.905C508.007 565.376 501.667 561.296 494.925 557.916C493.263 556.758 491.61 555.609 489.948 554.451C488.874 553.704 487.399 554.489 487.063 555.619C484.859 562.846 483.496 570.195 482.88 577.73C482.749 579.373 484.626 579.943 485.839 579.42H485.83Z" fill="#F0FF00"/>
<path d="M650.534 302.218C652.869 299.687 655.026 297.007 656.912 294.122C658.004 292.46 660.544 289.556 660.077 287.38C659.564 285.009 657.061 285.429 655.268 285.699C650.964 286.344 646.659 286.456 642.317 286.129C640.954 286.026 640.328 287.25 640.497 288.361C640.3 288.725 640.291 289.192 640.618 289.677C643.214 293.562 645.576 297.614 647.565 301.844C648.069 302.918 649.769 303.058 650.534 302.227V302.218Z" fill="white"/>
<path d="M224.558 346.963C229.6 352.575 233.652 359.232 238.013 365.376C238.732 366.385 240.581 366.226 241.169 365.171C243.727 360.568 246.286 355.955 248.835 351.351C251.281 349.353 252.607 345.553 254.008 342.994C254.811 341.519 253.756 339.726 252.019 339.978C249.853 340.287 247.677 340.557 245.502 340.847C243.036 341.015 240.59 341.379 238.153 341.799C234.418 342.257 230.674 342.705 226.929 343.106C226.369 343.172 225.986 343.415 225.743 343.751C225.706 343.751 225.678 343.751 225.641 343.76C224.128 343.891 223.642 345.945 224.558 346.954V346.963Z" fill="white"/>
<path d="M341.444 373.677C335.384 369.149 329.044 365.068 322.303 361.688C320.641 360.53 318.988 359.382 317.326 358.224C316.252 357.477 314.777 358.261 314.44 359.391C312.237 366.618 310.873 373.967 310.257 381.502C310.126 383.146 312.003 383.715 313.217 383.192C322.032 379.392 331.92 380.027 340.996 377.114C342.658 376.581 342.733 374.639 341.454 373.677H341.444Z" fill="#939393"/>
<path d="M403.352 348.83C403.38 348.905 403.417 348.98 403.464 349.054C407.246 355.245 411.083 361.399 414.893 367.571C415.799 369.046 417.797 368.607 418.367 367.123C421.159 359.886 424.035 352.696 427.125 345.59C427.826 343.984 426.677 342.481 424.94 342.77C420.328 343.527 415.687 343.844 411.018 343.611C407.946 343.461 405.63 343.387 402.829 344.759C401.653 345.329 401.643 346.935 402.437 347.794C402.754 348.139 403.053 348.485 403.361 348.84L403.352 348.83Z" fill="#333333"/>
<path d="M120.164 581.484C122.76 585.368 125.123 589.42 127.111 593.65C127.616 594.724 129.315 594.864 130.081 594.033C132.415 591.503 134.572 588.823 136.458 585.938C137.551 584.275 140.091 581.371 139.624 579.196C139.11 576.824 136.608 577.244 134.815 577.515C130.51 578.159 126.206 578.271 121.864 577.945C120.5 577.842 119.875 579.065 120.043 580.176C119.847 580.54 119.838 581.007 120.164 581.493V581.484Z" fill="#333333"/>
<path d="M552.182 664.092C552.491 664.653 553.023 665.045 553.798 664.942C562.08 663.859 570.363 662.823 578.654 661.823C580.232 661.637 580.989 660.339 580.363 658.873C576.423 649.666 571.539 640.935 565.6 632.858C564.853 631.841 563.079 631.505 562.398 632.858C557.654 642.317 553.564 652.094 550.773 662.318C550.474 663.401 551.314 664.083 552.182 664.092Z" fill="#939393"/>
<path d="M288.342 616.723C288.342 616.723 288.277 616.723 288.239 616.733C286.727 616.863 286.241 618.908 287.156 619.926C292.198 625.538 296.251 632.195 300.612 638.34C301.331 639.348 303.179 639.189 303.768 638.134C306.326 633.531 308.885 628.918 311.434 624.315C313.88 622.316 315.206 618.516 316.607 615.957C317.41 614.482 316.355 612.689 314.618 612.941C312.451 613.25 310.276 613.52 308.1 613.81C305.635 613.978 303.189 614.342 300.752 614.762C297.017 615.22 293.272 615.668 289.528 616.07C288.968 616.126 288.585 616.378 288.342 616.714V616.723Z" fill="#F0FF00"/>
<path d="M147.869 697.707C148.177 698.268 148.709 698.66 149.484 698.557C157.766 697.474 166.049 696.438 174.341 695.438C175.919 695.252 176.675 693.954 176.049 692.488C172.109 683.281 167.225 674.55 161.287 666.473C160.54 665.456 158.766 665.12 158.084 666.473C153.341 675.932 149.251 685.709 146.459 695.933C146.16 697.016 147 697.698 147.869 697.707Z" fill="white"/>
<path d="M8.25441 594.491C14.3238 586.526 19.5154 577.973 23.6146 568.831C24.1375 567.673 23.5492 565.965 22.0366 566.049C14.6413 566.422 7.27397 567.16 -0.00927734 568.458V587.917C1.60611 590.102 3.23084 592.278 4.84622 594.463C5.78931 595.742 7.29265 595.761 8.25441 594.491Z" fill="#F0FF00"/>
<path d="M736.822 572.538C736.486 573.08 736.411 573.733 736.888 574.368C740.277 578.869 743.648 583.388 747 587.917V568.458C743.872 569.018 740.763 569.662 737.681 570.447C736.598 570.727 736.421 571.791 736.832 572.548L736.822 572.538Z" fill="#F0FF00"/>
<path d="M357.962 687.884C358.541 689.434 360.484 689.145 361.361 688.146C367.72 680.956 376.936 677.324 383.911 670.825C385.191 669.639 384.434 667.846 382.856 667.529C375.442 666.007 367.972 665.017 360.428 664.83C358.439 664.494 356.44 664.158 354.452 663.812C353.163 663.597 352.164 664.933 352.332 666.1C353.415 673.579 355.311 680.816 357.953 687.884H357.962Z" fill="#939393"/>
<path d="M454.54 667.258C454.568 667.332 454.606 667.407 454.652 667.482C458.434 673.673 462.272 679.826 466.081 685.998C466.987 687.473 468.985 687.035 469.555 685.55C472.347 678.313 475.223 671.123 478.314 664.018C479.014 662.412 477.865 660.908 476.129 661.198C471.516 661.954 466.875 662.272 462.206 662.038C459.134 661.889 456.819 661.814 454.017 663.187C452.841 663.756 452.831 665.362 453.625 666.221C453.943 666.567 454.241 666.912 454.55 667.267L454.54 667.258Z" fill="white"/>
<path d="M160.848 5.27569C161.38 5.91997 162.052 6.24679 162.753 6.34016C163.836 6.93776 165.068 7.27391 166.31 7.27391C170.661 7.26457 172.781 3.57626 172.464 0H159.148C158.971 1.83015 159.54 3.68831 160.857 5.27569H160.848Z" fill="#F0FF00"/>
<path d="M321.191 226.714C319.352 228.675 319.072 231.887 320.407 234.203C320.5 235.38 320.977 236.547 321.854 237.434C324.637 240.235 328.932 238.097 330.818 235.305C332.648 232.588 332.2 228.965 329.857 226.714C327.447 224.408 323.526 224.24 321.201 226.714H321.191Z" fill="#F0FF00"/>
<path d="M679.704 163.948C680.069 165.255 680.993 166.011 682.114 166.329C684.037 167.617 686.539 167.048 687.763 165.19C688.482 164.947 689.201 164.713 689.92 164.489C691.638 163.966 692.777 162.192 692.282 160.4C692.011 159.419 691.264 158.653 690.368 158.271C690.583 156.954 689.985 155.563 688.78 154.872C687.109 153.91 685.26 154.592 684.196 156.048C684.074 156.207 683.962 156.384 683.841 156.553C683.029 156.665 682.244 156.945 681.572 157.421C680.106 158.448 679.592 160.063 679.957 161.483C679.592 162.239 679.462 163.126 679.695 163.957L679.704 163.948Z" fill="#333333"/>
<path d="M707.671 22.2513C706.69 21.7097 705.663 21.5043 704.673 21.551C704.29 21.3269 703.889 21.1308 703.459 21C698.305 19.45 694.682 25.6688 696.998 29.9174C697.735 31.2713 699.08 31.7568 700.387 31.6261C701.751 32.6159 703.683 32.4945 705.019 31.318C705.467 30.9165 705.822 30.4309 706.092 29.908C706.55 29.4411 706.914 28.8996 707.157 28.2833C707.857 28.0312 708.492 27.5643 708.903 26.8733C709.837 25.3046 709.277 23.1477 707.671 22.2606V22.2513Z" fill="white"/>
<path d="M170.185 742.229C170.185 741.155 169.625 740.034 168.831 739.446C167.59 738.531 165.47 738.4 164.387 739.707C163.995 740.174 163.602 740.66 163.229 741.155C163.201 741.173 163.173 741.192 163.145 741.22C162.295 741.622 161.52 742.21 160.895 742.957C159.867 744.189 159.289 745.581 159.148 746.991H172.464C172.305 745.226 171.567 743.48 170.185 742.219V742.229Z" fill="#F0FF00"/>
<path d="M459.564 129.576C459.125 130.912 459.835 132.957 461.198 133.536C462.832 134.236 464.475 134.609 466.259 134.152C466.38 134.124 466.502 134.077 466.614 134.04C467.902 134.507 469.359 134.32 470.433 133.255C470.834 132.854 471.114 132.359 471.282 131.827C471.609 131.509 471.917 131.154 472.141 130.762C472.972 129.296 472.627 127.625 471.749 126.271C471.086 125.244 470.162 124.516 469.116 124.049C468.967 123.619 468.724 123.218 468.36 122.863C467.108 121.64 464.877 121.565 463.644 122.863C461.795 124.805 460.413 127.027 459.573 129.576H459.564Z" fill="white"/>
<path d="M528.316 165.442C526.196 168.224 529.931 171.67 532.714 170.708C532.872 170.83 533.031 170.942 533.199 171.016C534.404 171.558 535.674 171.698 536.85 171.511C537.13 171.539 537.42 171.549 537.709 171.511C539.054 171.315 539.95 170.54 540.436 169.448C540.837 168.934 541.155 168.336 541.351 167.655C544.358 166.88 545.226 162.127 541.528 161.203C540.408 160.922 539.315 160.96 538.307 161.24C538.279 161.221 538.242 161.203 538.214 161.193C536.813 160.278 534.749 160.353 533.573 161.613C533.451 161.744 533.358 161.884 533.255 162.024C531.36 162.547 529.632 163.733 528.325 165.451L528.316 165.442Z" fill="white"/>
<path d="M575.909 319.912C577.683 323.862 583.79 325.076 586.647 321.546C587.142 320.93 587.478 320.22 587.6 319.492C588.701 318.418 589.28 316.877 588.814 315.159C588.627 314.468 588.3 313.843 587.889 313.301C587.721 311.975 586.834 310.621 585.433 310.407C584.07 310.192 582.744 310.407 581.614 310.985C579.943 311.079 578.383 311.751 577.17 313.058C575.452 314.907 574.854 317.578 575.9 319.903L575.909 319.912Z" fill="#333333"/>
<path d="M378.141 481.385C377.954 481.357 377.767 481.339 377.581 481.329C376.451 480.993 375.237 481.161 374.116 481.852C373.425 482.161 372.772 482.599 372.193 483.188C371.745 483.636 371.371 484.168 371.072 484.747C370.633 485.261 370.344 485.849 370.204 486.484C370.082 486.773 369.98 487.063 369.886 487.362C369.317 489.201 370.577 491.414 372.464 491.844C373.033 491.974 373.593 491.965 374.116 491.862C375.629 492.264 377.282 492.086 378.636 491.227C380.662 489.939 381.568 487.408 380.979 485.102C380.867 484.682 380.699 484.271 380.494 483.879C380.232 482.702 379.373 481.582 378.141 481.395V481.385Z" fill="white"/>
<path d="M461.161 502.329C459.993 502.189 458.499 503.095 457.995 504.122C457.37 505.392 456.753 506.662 456.137 507.941C455.315 509.659 455.614 511.928 457.454 512.89C458.425 513.394 459.667 513.478 460.722 513.096C461.179 513.254 461.655 513.348 462.122 513.357C462.589 513.357 463.047 513.292 463.486 513.161C464.223 513.133 464.961 512.946 465.643 512.535C467.51 511.415 467.968 509.333 467.482 507.4C467.501 507.26 467.519 507.11 467.519 506.97C467.445 505.364 466.52 504.337 465.194 503.87C464.065 502.992 462.673 502.507 461.17 502.329H461.161Z" fill="#333333"/>
<path d="M357.514 313.301C359.456 316.345 364.396 316.056 366.179 312.984C367.113 311.368 367.113 309.267 366.021 307.717C365.414 306.858 364.639 306.214 363.761 305.822C362.715 304.86 360.95 304.459 359.718 305.327C358.196 306.41 357.01 307.708 356.861 309.66C356.851 309.8 356.861 309.94 356.87 310.07C356.692 311.182 356.907 312.367 357.505 313.311L357.514 313.301Z" fill="#939393"/>
<path d="M249.507 286.979C248.415 285.307 246.594 285.027 244.857 285.784C243.765 286.26 242.906 287.081 242.261 288.053C241.393 288.809 240.964 289.967 241.057 291.087C240.982 291.713 240.992 292.357 241.122 292.955C241.505 294.635 243.429 295.775 245.081 295.765C247.341 295.747 249.423 294.019 249.629 291.825C249.731 291.619 249.825 291.414 249.89 291.19C250.114 290.434 250.096 289.743 249.928 289.061C250.021 288.333 249.9 287.586 249.507 286.988V286.979Z" fill="white"/>
<path d="M56.716 387.478C58.7236 386.264 60.3576 384.621 61.6369 382.66C62.5519 381.269 62.0757 379.551 61.0766 378.393C59.1344 376.143 55.8943 375.918 53.3452 377.142C52.178 377.702 51.6364 379.018 51.5524 380.223C51.5524 380.344 51.5524 380.456 51.5524 380.578C50.74 382.38 50.712 384.649 51.9352 386.236C53.065 387.702 54.9512 388.524 56.7067 387.469L56.716 387.478Z" fill="white"/>
<path d="M175.891 394.509C175.965 393.576 175.685 392.633 174.929 391.97C173.183 390.466 170.792 390.167 168.775 391.363C167.86 391.904 167.216 392.698 166.842 393.594C165.731 394.995 165.208 396.862 165.825 398.609C166.45 400.383 168.318 401.718 170.241 401.176C171.455 401.559 172.781 401.531 174.014 401.018C176.6 399.934 177.067 396.797 175.891 394.509Z" fill="#939393"/>
<path d="M304.645 544.694C305.934 544.302 307.026 543.359 307.372 542.023C307.418 541.837 307.446 541.65 307.465 541.454C307.689 541.015 307.829 540.529 307.801 539.997C307.764 539.129 307.465 538.223 306.802 537.625C306.102 536.99 305.327 536.72 304.384 536.645C302.33 536.467 300.341 537.737 299.724 539.708C299.342 540.949 299.743 542.294 300.509 543.275C301.442 544.47 303.123 545.142 304.627 544.694H304.645Z" fill="white"/>
<path d="M7.10584 692.693C7.33928 692.264 7.52603 691.825 7.65675 691.367C8.1423 690.518 8.42243 689.556 8.45044 688.501C8.5158 685.317 5.94799 682.497 2.89463 681.862C1.89551 681.656 0.915075 681.684 0 681.908V695.644C2.70788 696.279 5.6772 695.242 7.10584 692.693Z" fill="white"/>
<path d="M747 681.908C744.722 682.459 742.845 684.224 742.033 686.568C740.94 689.705 742.285 693.263 745.151 694.915C745.74 695.252 746.356 695.494 747 695.644V681.908Z" fill="white"/>
<path d="M662.514 636.388C663.009 636.061 663.429 635.66 663.784 635.212C665.474 633.951 666.567 631.915 666.585 629.768C666.604 628.264 666.175 626.602 664.942 625.669C663.775 624.782 662.365 624.296 660.89 624.324C659.769 624.343 658.714 624.641 657.79 625.164C654.577 625.781 652.383 629.011 653.373 632.494C654.437 636.257 659.022 638.741 662.505 636.388H662.514Z" fill="white"/>
<path d="M689.266 556.44C688.305 557.029 687.324 557.542 686.362 558.121C684.766 559.083 684.009 561.333 685.074 562.967C685.569 563.724 686.306 564.387 687.221 564.592C688.099 564.788 689.229 564.797 689.985 564.237C690.62 563.77 691.274 563.313 691.871 562.799C691.937 562.743 692.002 562.687 692.058 562.631C692.264 562.482 692.469 562.332 692.684 562.183C693.412 561.66 693.991 561.09 694.243 560.194C694.467 559.4 694.365 558.336 693.898 557.636C692.917 556.142 690.863 555.46 689.266 556.44Z" fill="white"/>
<path d="M586.395 593.137C584.546 593.062 582.735 594.799 582.819 596.666C582.903 598.534 584.415 600.28 586.395 600.196C586.703 600.187 587.021 600.168 587.329 600.158C588.253 600.121 589.159 599.794 589.831 599.131C590.438 598.524 590.905 597.535 590.868 596.666C590.774 594.687 589.29 593.258 587.329 593.174C587.021 593.165 586.703 593.146 586.395 593.137Z" fill="#333333"/>
<path d="M54.2883 118.213C56.4359 118.157 58.1073 116.868 58.8637 115.066C59.4519 114.496 59.8908 113.768 60.1896 112.974C60.7312 111.536 59.9095 109.818 58.6489 108.978C58.5649 108.875 58.4902 108.773 58.3874 108.679C57.6218 107.988 56.6974 107.689 55.7823 107.745C55.3061 107.587 54.8112 107.465 54.2789 107.437C53.1024 107.381 51.6925 108.138 51.1509 109.202C50.4879 110.528 50.3385 111.957 50.9548 113.301C50.8521 113.768 50.7867 114.254 50.7587 114.73C50.656 116.597 52.4861 118.259 54.2883 118.213Z" fill="#333333"/>
<path d="M87.6418 168.094C86.2879 167.384 84.3924 167.449 83.2999 168.645C82.8237 169.167 82.4408 169.737 82.1233 170.335C80.2839 171.399 79.2754 173.706 80.508 175.713C81.1056 176.693 82.058 177.31 83.1038 177.581C83.9535 178.122 85.0086 178.346 85.9797 178.029C87.399 177.571 88.3608 176.451 88.5662 175.097C88.753 174.761 88.9024 174.406 89.0051 174.032C89.1451 173.519 89.1918 172.987 89.2479 172.464C89.2665 172.286 89.2945 172.099 89.2945 171.913C89.2945 171.894 89.2945 171.894 89.2945 171.885C89.4906 170.428 89.0331 168.831 87.6231 168.094H87.6418Z" fill="#939393"/>
<path d="M231.187 77.0064C230.646 76.3621 229.441 75.9232 228.619 75.9606C228.377 75.9699 228.143 76.0073 227.919 76.054C227.872 76.054 227.826 76.0353 227.779 76.0446C226.005 76.1193 224.333 77.4919 224.38 79.3874C224.399 80.2185 224.427 81.0402 224.436 81.8712C224.483 84.0842 226.677 85.877 228.881 85.2047C230.571 84.6912 231.766 83.4773 232.345 81.8245C232.597 81.1055 232.597 80.4052 232.494 79.6676C232.354 78.6031 231.869 77.8188 231.187 77.0157V77.0064Z" fill="white"/>
<path d="M469.312 31.6167C471.114 31.2806 472.543 29.7399 473.103 28.0498C473.178 27.8257 473.234 27.611 473.271 27.3869C474.41 26.7426 475.064 25.2672 474.896 24.0254C474.681 22.4473 473.234 21.0374 471.553 21.1307C470.395 21.1961 469.303 21.5229 468.341 22.0551C467.902 22.1859 467.491 22.382 467.127 22.6527C466.604 23.0543 466.221 23.5678 465.988 24.1281C465.176 25.2486 464.681 26.6212 464.671 28.1245C464.671 29.273 465.222 30.2815 466.109 30.9631C467.08 31.7008 468.117 31.8315 469.303 31.6074L469.312 31.6167Z" fill="white"/>
<path d="M588.804 3.40819C589.85 4.67809 591.456 5.34105 593.09 5.46244C593.295 5.54647 593.51 5.63051 593.734 5.69587C597.656 6.82571 602.175 3.82837 602.203 0H587.861C587.534 1.18586 588.048 2.49311 588.804 3.40819Z" fill="#F0FF00"/>
<path d="M601.428 744.236C599.187 740.37 593.099 740.268 590.559 743.76C589.7 744.395 588.935 745.189 588.244 746.16C588.048 746.43 587.936 746.72 587.852 747.009H602.194C602.194 746.122 601.961 745.179 601.419 744.245L601.428 744.236Z" fill="#F0FF00"/>
<path d="M541.65 368.859C543.695 368.925 545.506 367.449 545.786 365.423C545.88 364.713 545.786 364.013 545.543 363.369C545.413 362.622 545.067 361.922 544.479 361.352C543.134 360.063 541.005 359.933 539.446 360.904C537.849 361.903 537.074 363.808 537.569 365.638C538.064 367.477 539.754 368.803 541.64 368.859H541.65Z" fill="#939393"/>
<path d="M707.969 103.889C706.625 102.862 704.813 103.021 703.571 104.15C703.524 104.197 703.478 104.235 703.431 104.272C703.114 104.44 702.815 104.645 702.525 104.954C701.89 105.644 701.47 106.513 701.47 107.465C701.47 108.343 701.862 109.379 702.525 109.977C703.216 110.603 704.113 111.06 705.074 111.014C705.971 110.976 707.017 110.696 707.624 109.977C707.941 109.594 708.203 109.258 708.399 108.866C708.539 108.623 708.679 108.371 708.838 108.138C709.286 107.493 709.416 106.335 709.174 105.598C708.94 104.897 708.557 104.337 707.969 103.889Z" fill="#333333"/>
<path d="M359.503 422.176C361.856 420.113 362.557 416.602 360.754 413.95C358.803 411.074 355.255 410.327 352.173 411.69C351.837 411.84 351.566 412.073 351.333 412.335C350.735 412.633 350.203 413.091 349.792 413.67C348.018 416.154 348.578 419.721 350.558 421.906C352.92 424.52 356.945 424.436 359.513 422.186L359.503 422.176Z" fill="#939393"/>
<path d="M29.077 651.421C30.0948 652.953 31.7569 653.588 33.5403 653.214C35.2584 652.85 36.575 651.207 36.5937 649.47C36.6217 647.789 35.5666 646.398 34.0539 645.763C33.2135 645.417 32.3078 645.305 31.4207 645.539C30.7297 645.726 29.9641 646.062 29.4972 646.641C29.0583 647.079 28.7502 647.593 28.5821 648.181C28.5354 648.489 28.4981 648.798 28.4514 649.115C28.4327 649.498 28.4981 649.881 28.6288 650.226C28.6848 650.646 28.8249 651.048 29.0677 651.421H29.077Z" fill="#939393"/>
<path d="M99.0149 715.337C99.5844 717.129 101.573 718.437 103.469 717.83C105.215 717.269 106.662 715.337 105.999 713.432C105.672 712.498 105.346 711.574 105.019 710.64C104.711 709.762 104.197 709.006 103.375 708.529C102.61 708.081 101.48 707.904 100.621 708.175C98.8468 708.744 97.5209 710.612 98.1278 712.517C98.4266 713.45 98.7254 714.393 99.0242 715.327L99.0149 715.337Z" fill="white"/>
<path d="M330.548 34.0259C326.206 34.0259 326.196 40.6648 330.548 40.6648C334.899 40.6648 334.899 34.0259 330.548 34.0259Z" fill="#333333"/>
<path d="M578.925 43.382C574.611 43.382 574.602 49.9836 578.925 49.9836C583.248 49.9836 583.248 43.382 578.925 43.382Z" fill="#333333"/>
<path d="M629.348 360.876C625.043 360.876 625.034 367.459 629.348 367.459C633.662 367.459 633.662 360.876 629.348 360.876Z" fill="white"/>
<path d="M706.849 436.575C711.181 436.575 711.181 429.955 706.849 429.955C702.516 429.955 702.516 436.575 706.849 436.575Z" fill="white"/>
<path d="M717.12 665.39C721.509 665.39 721.518 658.667 717.12 658.667C712.722 658.667 712.722 665.39 717.12 665.39Z" fill="#939393"/>
<path d="M29.8799 272.132C25.5286 272.132 25.5286 278.78 29.8799 278.78C34.2312 278.78 34.2312 272.132 29.8799 272.132Z" fill="white"/>
<path d="M422.055 296.568C426.462 296.568 426.462 289.827 422.055 289.827C417.648 289.827 417.648 296.568 422.055 296.568Z" fill="white"/>
<path d="M420.187 140.492C415.874 140.492 415.864 147.094 420.187 147.094C424.511 147.094 424.511 140.492 420.187 140.492Z" fill="white"/>
<path d="M38.2837 36.8084C33.9137 36.8084 33.9044 43.4941 38.2837 43.4941C42.6629 43.4941 42.6629 36.8084 38.2837 36.8084Z" fill="white"/>
<path d="M522.9 517.802C527.223 517.802 527.233 511.191 522.9 511.191C518.567 511.191 518.567 517.802 522.9 517.802Z" fill="white"/>
<path d="M448.2 614.856C452.458 614.856 452.467 608.347 448.2 608.347C443.933 608.347 443.933 614.856 448.2 614.856Z" fill="#333333"/>
<path d="M425.79 694.29C430.123 694.29 430.123 687.67 425.79 687.67C421.457 687.67 421.457 694.29 425.79 694.29Z" fill="#F0FF00"/>
<path d="M535.039 701.797C539.418 701.797 539.427 695.093 535.039 695.093C530.65 695.093 530.65 701.797 535.039 701.797Z" fill="#939393"/>
<path d="M345.123 716.719C345.441 716.41 345.749 716.102 346.067 715.794C347.355 714.534 347.439 712.208 346.067 710.967C344.703 709.734 342.509 709.594 341.164 710.967C340.856 711.284 340.548 711.592 340.24 711.91C338.989 713.189 338.849 715.458 340.24 716.709C341.622 717.96 343.751 718.044 345.123 716.709V716.719Z" fill="white"/>
<path d="M168.448 624.156C168.14 624.464 167.832 624.782 167.515 625.09C166.264 626.35 166.142 628.619 167.515 629.861C168.878 631.094 171.016 631.206 172.361 629.861C172.669 629.553 172.987 629.245 173.295 628.927C174.555 627.676 174.658 625.389 173.295 624.156C171.941 622.933 169.784 622.802 168.439 624.156H168.448Z" fill="white"/>
<path d="M265.185 574.256C260.694 574.256 260.684 581.138 265.185 581.138C269.686 581.138 269.686 574.256 265.185 574.256Z" fill="white"/>
<path d="M68.5372 566.263C68.2197 566.572 67.9116 566.88 67.5941 567.188C66.3242 568.448 66.2215 570.736 67.5941 571.978C68.9574 573.211 71.1237 573.332 72.4589 571.978C72.7671 571.66 73.0752 571.352 73.3833 571.035C74.6346 569.765 74.756 567.496 73.3833 566.254C72.0107 565.012 69.8818 564.909 68.5278 566.254L68.5372 566.263Z" fill="#939393"/>
<path d="M139.129 491.591C134.824 491.591 134.815 498.184 139.129 498.184C143.443 498.184 143.443 491.591 139.129 491.591Z" fill="white"/>
<path d="M586.759 198.356C586.451 198.674 586.152 198.991 585.844 199.309C584.621 200.588 584.462 202.81 585.844 204.062C587.226 205.304 589.308 205.378 590.681 204.062C590.998 203.754 591.316 203.455 591.633 203.147C592.922 201.905 592.987 199.58 591.633 198.356C590.289 197.143 588.085 196.984 586.769 198.356H586.759Z" fill="white"/>
<path d="M535.973 113.628C540.464 113.628 540.473 106.746 535.973 106.746C531.472 106.746 531.472 113.628 535.973 113.628Z" fill="#333333"/>
<path d="M708.716 260.012C704.403 260.012 704.393 266.614 708.716 266.614C713.04 266.614 713.04 260.012 708.716 260.012Z" fill="white"/>
<path d="M200.756 245.147C205.08 245.147 205.089 238.536 200.756 238.536C196.424 238.536 196.424 245.147 200.756 245.147Z" fill="#F0FF00"/>
<path d="M468.742 371.166C464.466 371.166 464.457 377.711 468.742 377.711C473.028 377.711 473.028 371.166 468.742 371.166Z" fill="white"/>
<path d="M130.071 117.158C128.568 115.355 126.364 115.047 124.179 114.73C121.145 114.291 118.063 114.02 115.001 113.721C115.701 110.827 116.98 108.24 118.792 105.766C120.631 103.254 116.448 101.004 114.627 103.375C111.91 106.924 110.229 110.827 109.585 115.253C109.333 116.999 110.266 118.231 112.031 118.418C115.309 118.764 120.594 118.343 123.544 119.651C125.328 119.501 125.963 120.65 125.459 123.087C125.048 123.899 124.628 124.702 124.217 125.515C123.255 127.401 122.284 129.287 121.322 131.173C120.444 132.891 121.546 134.852 123.507 134.918C125.935 134.992 128.363 135.067 130.79 135.142C130.529 137.551 129.959 139.81 129.063 142.145C127.877 145.254 133.022 146.664 134.124 143.517C135.366 139.96 135.973 136.486 136.019 132.723C136.038 131.332 134.824 130.267 133.489 130.23C131.584 130.174 129.679 130.118 127.774 130.062C130.193 125.935 132.957 120.612 130.062 117.148L130.071 117.158Z" fill="#F0FF00"/>
<path d="M301.069 75.9886C299.575 74.3452 297.698 74.5413 295.7 74.8961C291.853 75.5684 287.968 77.1838 284.233 78.3043C281.227 79.2007 282.515 83.7761 285.531 82.9357C287.726 82.3194 289.92 81.7031 292.114 81.0869C293.552 80.676 296.634 79.2661 297.25 80.2091C297.95 81.2923 296.839 85.8023 296.736 87.1562C296.531 89.9108 296.316 92.6654 296.111 95.4106C296.027 96.5124 296.988 97.5956 298.006 97.8664C301.424 98.7628 303.506 97.3621 306.774 96.6338C310.49 95.8028 309.118 98.576 308.8 101.181C308.52 103.432 308.035 105.682 307.661 107.923C307.269 110.229 309.379 111.826 311.499 110.836C312.75 110.126 314.085 109.688 315.505 109.529C317.036 110.155 317.727 111.21 317.578 112.704C317.923 113.441 317.886 114.114 318.437 114.861C319.623 116.467 321.21 116.747 323.077 116.392C326.43 115.757 324.926 110.948 321.686 111.415C324.824 110.958 320.22 105.719 318.726 105.056C317.064 104.328 315.402 104.281 313.768 104.599C314.73 100.49 315.579 95.6254 313.198 93.1229C309.538 89.2572 305.439 92.7121 301.452 93.0856C301.713 89.5747 301.984 86.0731 302.199 82.5622C302.33 80.4052 302.666 77.7627 301.06 75.9979L301.069 75.9886Z" fill="#939393"/>
<path d="M449.461 211.765C447.64 213.269 447.939 215.239 448.041 217.396C448.256 222.12 448.564 226.836 448.826 231.561C448.994 234.586 453.775 234.614 453.644 231.561C453.522 228.909 453.41 226.248 453.289 223.596C453.242 222.522 452.477 216.201 453 215.762C453.382 215.435 458.602 217.48 459.256 217.695C461.823 218.507 464.354 219.413 466.875 220.365C468.752 221.075 470.582 218.983 470.078 217.209C469.499 215.183 468.117 211.625 469.723 209.739C471.562 207.573 474.588 209.888 476.53 210.262C478.622 210.673 480.956 210.262 482.413 208.59C484.14 206.611 483.085 204.977 483.542 202.783C483.944 200.868 483.589 201.905 485.485 201.279C486.699 200.878 487.287 200.635 488.249 199.748C490.76 197.441 487.007 193.847 484.514 196.06C483.729 196.76 481.442 196.405 480.405 197.059C479.303 197.75 478.612 198.861 478.295 200.103C478.005 201.27 478.92 203.492 478.398 204.361C477.539 205.789 474.504 203.81 472.879 203.511C465.867 202.26 464.008 208.404 464.307 213.988C461.562 213.035 458.789 212.157 455.978 211.438C453.793 210.878 451.403 210.168 449.47 211.765H449.461Z" fill="white"/>
<path d="M632.924 97.6516C634.362 100.415 636.127 102.741 638.433 104.841C640.898 107.092 644.633 103.497 642.159 101.172C641.16 100.229 640.282 99.2483 639.488 98.2118C641.991 97.7636 644.493 97.3061 646.996 96.8579C648.583 96.5684 649.489 94.3648 648.574 93.0388C647.098 90.9192 645.464 89.0237 643.625 87.343C646.342 86.8201 648.975 85.8863 651.543 84.5324C653.41 83.5426 653.028 81.1709 651.543 80.0971C647.883 77.4639 644.222 74.8307 640.562 72.2069C647.425 67.4915 653.354 61.7396 658.285 54.9419C660.115 52.4207 655.932 50.1797 654.111 52.5515C648.76 59.5359 642.289 65.3532 634.782 69.9192C633.017 70.993 633.251 73.178 634.782 74.2892C638.19 76.7636 641.589 79.2287 644.997 81.7031C642.131 82.5809 639.189 82.833 636.033 82.5248C633.4 82.2634 632.541 86.1478 634.707 87.343C637.313 88.7716 639.563 90.4897 641.514 92.572C639.171 92.9922 636.836 93.4123 634.493 93.8325C632.737 94.15 632.196 96.279 632.915 97.6609L632.924 97.6516Z" fill="#939393"/>
<path d="M53.8307 340.548C54.9326 335.861 56.2585 331.238 57.8552 326.691C58.9383 323.6 60.2643 323.246 63.1869 324.59C65.5119 325.664 67.837 326.747 70.1527 327.821C71.5626 328.475 73.5795 328.045 73.9624 326.29C74.5973 323.386 75.9699 308.819 80.0037 309.202C81.3764 309.333 82.4128 310.901 84.1029 310.901C85.9424 310.901 86.9228 309.977 87.9686 308.623C89.7988 306.242 85.6249 303.067 83.7668 305.42C84.2803 304.767 79.3595 303.712 79.042 303.74C76.941 303.889 75.4004 305.103 74.1585 306.709C71.0864 310.687 70.3581 316.728 69.5084 321.929C66.9686 320.762 64.4288 319.585 61.8423 318.549C59.7694 317.718 57.8085 317.382 56.0624 318.978C54.0455 320.827 53.4105 324.544 52.6075 327.027C51.2909 331.07 50.2358 335.179 49.3207 339.325C48.6764 342.219 53.1584 343.424 53.8401 340.548H53.8307Z" fill="white"/>
<path d="M214.482 446.491C216.117 442.952 216.808 435.529 222.167 435.856C225.183 436.043 227.088 438.078 230.394 437.63C233.391 437.228 232.709 432.074 229.675 432.364C226.836 432.634 224.558 430.477 221.719 430.347C218.955 430.225 216.537 431.589 214.688 433.531C212.652 435.669 211.709 438.396 210.757 441.132C210.514 441.869 210.262 442.598 210 443.326C209.627 443.886 209.347 444.344 209.16 444.68C207.619 443.979 205.388 441.617 204.295 440.805C202.867 439.74 200.784 440.898 200.336 442.392C199.104 446.482 197.871 450.572 196.648 454.662C193.744 451.851 190.214 449.853 185.919 451.216C183.613 451.944 181.764 453.532 180.952 455.829C180.326 457.603 181.624 463.112 180.102 464.046C177.469 465.642 179.896 469.667 182.52 468.098C185.107 466.558 185.555 464.345 185.574 461.469C185.592 458.947 185.732 455.306 189.383 455.997C192.054 456.501 194.033 459.349 195.537 461.357C196.872 463.14 199.711 463.065 200.43 460.722C201.774 456.333 203.091 451.935 204.417 447.546C208.114 450.273 211.859 452.187 214.501 446.482L214.482 446.491Z" fill="white"/>
<path d="M287.334 313.068C288.837 310.817 290.35 308.66 292.367 306.821C294.468 304.907 296.111 303.581 298.072 306.13C300.042 308.698 300.696 311.284 304.169 312.162C305.206 312.423 306.644 312.013 307.129 310.976C307.661 309.856 311.985 298.716 312.862 298.697C313.255 298.697 314.683 301.041 315.131 301.414C316.159 302.255 317.148 302.516 318.437 302.526C321.882 302.544 321.892 297.213 318.437 297.231C317.989 297.231 316.084 294.43 315.412 294.057C314.039 293.3 312.283 293.226 310.883 293.907C308.838 294.906 307.867 297.213 306.942 299.127C305.859 301.358 304.813 303.609 303.777 305.859C302.666 304.412 301.91 302.218 300.808 301.106C299.052 299.351 296.746 298.716 294.346 299.454C291.181 300.434 288.351 303.469 286.297 305.924C285.233 307.204 284.43 308.698 283.375 309.958C282.581 310.92 282.982 311.49 281.722 311.312C280.555 311.153 280.237 309.398 279.957 308.464C279.089 305.57 274.504 306.756 275.326 309.716C277.165 316.354 282.973 319.641 287.352 313.068H287.334Z" fill="#F0FF00"/>
<path d="M458.975 459.442C461.179 457.201 461.114 453.747 458.527 451.739C455.268 449.208 452.374 451.272 449.274 452.411C449.414 448.956 449.292 444.96 445.903 443.877C443.429 443.092 440.263 444.269 437.331 445.67C438.022 442.616 438.722 439.553 439.413 436.5C439.871 434.474 438.144 432.859 436.155 433.288C429.87 434.633 423.577 435.968 417.293 437.312C416.929 437.387 415.827 437.471 415.005 437.649C415.136 436.883 415.155 435.828 415.248 435.333C415.874 432.074 416.518 428.815 417.115 425.547C417.666 422.559 413.128 421.28 412.456 424.287C411.485 428.694 410.159 433.223 409.617 437.705C409.365 439.852 409.692 441.86 411.858 442.822C414.762 444.11 419.226 442.177 422.111 441.57C425.855 440.786 429.6 440.002 433.344 439.217C432.513 442.756 431.682 446.295 430.851 449.834C430.272 452.318 432.718 453.718 434.81 452.841C437.2 451.842 439.703 450.45 442.205 449.731C444.12 449.18 443.232 448.405 443.662 450.544C443.961 452.038 443.709 454.185 443.727 455.717C443.746 457.136 444.969 458.434 446.435 458.387C448.751 458.313 453.485 457.211 455.1 455.623C452.598 458.088 456.52 461.926 458.966 459.442H458.975Z" fill="#939393"/>
<path d="M582.175 482.319C583.5 483.44 584.752 485.251 585.601 486.148C587.385 488.034 589.159 489.911 590.942 491.797C592.38 493.309 595.032 492.544 595.574 490.583C596.33 487.875 597.311 485.13 597.862 482.375C598.254 480.414 597.722 480.732 598.907 481.376C599.57 481.74 600.392 483.141 600.906 483.654C602.904 485.662 605.892 486.605 608.404 484.924C611.476 482.87 610.411 479.77 611.644 476.913C612.587 474.719 612.708 476.735 614.352 477.613C615.519 478.239 616.686 478.313 617.9 477.828C621.093 476.549 619.907 471.562 616.434 472.58C617.265 472.337 616.602 472.039 615.612 471.273C614.996 470.787 614.333 470.293 613.577 470.05C612.139 469.592 610.654 469.816 609.403 470.619C608.049 471.478 607.124 472.916 606.573 474.401C606.135 475.606 606.293 479.994 604.846 479.761C603.819 479.593 601.783 476.231 600.411 475.606C598.982 474.943 597.507 474.719 596.022 475.344C593.183 476.539 592.035 480.517 591.269 484.177C589.682 482.515 588.085 480.863 586.451 479.247C584.92 477.735 582.987 475.54 580.484 476.343C578.057 477.118 577.618 479.639 577.142 481.787C576.301 485.625 575.592 489.509 574.901 493.366C574.34 496.447 579 497.782 579.709 494.673C580.27 492.208 580.783 489.743 581.297 487.268C581.549 486.073 581.661 483.925 582.175 482.329V482.319Z" fill="white"/>
<path d="M0 448.499V455.418C2.75456 457.341 5.85461 456.744 8.87063 455.605C10.5701 454.97 13.3153 453.13 13.9969 455.754C14.4078 457.332 12.643 461.487 12.2788 463.009C11.5412 466.128 9.80437 470.33 12.5216 472.954C13.418 473.813 20.944 474.989 20.5238 473.197C21.3269 476.661 26.7333 475.213 25.9209 471.721C25.1926 468.584 22.1112 467.585 19.1699 468.042C18.7404 468.108 17.1437 468.855 16.7141 468.509C16.4433 468.285 17.5825 464.83 17.6666 464.475C18.3295 461.674 19.3286 458.751 19.6368 455.885C19.9916 452.551 18.4042 449.806 15.0334 449.022C13.5861 448.686 11.9613 448.807 10.5234 449.134C8.84261 449.517 6.7977 450.889 4.90219 451.085C6.48023 446.996 7.47 442.822 7.89019 438.349C8.05826 436.631 5.976 435.174 4.4073 435.725C2.94131 436.239 1.47533 436.668 0 437.06V442.682C0.606938 442.532 1.20454 442.383 1.80214 442.224C1.38195 444.372 0.765675 446.454 0 448.499Z" fill="#333333"/>
<path d="M732.798 444.297C737.616 444.362 742.359 443.793 747 442.672V437.051C743.48 437.966 739.931 438.545 736.29 438.825C737.429 434.437 738.577 430.048 739.633 425.631C740.324 422.718 735.982 421.569 735.095 424.408C733.386 429.899 731.845 435.436 730.22 440.954C729.726 442.644 731.107 444.269 732.798 444.297Z" fill="#333333"/>
<path d="M746.757 455.24C746.841 455.306 746.925 455.353 747 455.409V448.489C746.627 449.489 746.216 450.488 745.758 451.468C745.058 452.953 745.469 454.26 746.757 455.231V455.24Z" fill="white"/>
<path d="M4.82749 185.573C5.86395 184.658 6.54559 183.37 6.48023 181.82C6.44288 180.923 5.99468 179.868 5.11695 179.476C5.09828 179.467 5.0796 179.457 5.05159 179.448C4.83683 178.44 4.08983 177.693 3.09071 177.347C2.0169 176.974 0.952425 177.039 0 177.403V190.662C0.681638 190.662 1.35394 190.401 1.83015 189.925C3.08138 188.655 4.23923 187.189 4.82749 185.573Z" fill="#939393"/>
<path d="M744.161 179.261C743.713 179.719 743.386 180.279 743.162 180.877C743.106 180.961 743.06 181.045 743.013 181.138C742.658 181.53 742.331 181.969 742.051 182.455C741.407 183.575 741.65 184.78 742.387 185.592C742.789 187.506 743.975 189.28 745.683 190.317C746.076 190.55 746.533 190.653 747 190.653V177.394C746.384 177.627 745.814 177.973 745.31 178.421C744.908 178.626 744.516 178.897 744.161 179.271V179.261Z" fill="#939393"/>
<path d="M388.412 573.117C389.813 574.471 392.605 573.995 393.044 571.913C393.37 570.335 393.977 565.778 396.975 566.749C400.383 567.851 401.793 562.631 398.45 561.455C393.669 559.764 390.588 562.799 388.907 566.637C386.647 565.348 384.07 564.807 381.745 566.46C378.907 568.476 378.15 573.556 377.637 577.833C374.919 575.676 371.642 573.575 368.99 575.125C367.73 575.862 367.253 577.198 366.842 578.486C365.797 581.801 365.376 585.489 364.658 588.897C364.023 591.923 368.654 593.183 369.364 590.167C369.653 588.944 371.035 579.98 371.801 579.831C371.661 579.859 377.609 584.714 378.309 585.237C379.654 586.246 381.997 585.219 382.315 583.631C382.8 581.185 383.286 578.738 383.762 576.292C383.921 575.47 383.93 573.696 384.406 573.024C385.331 571.707 387.058 571.81 388.412 573.126V573.117Z" fill="#F0FF00"/>
<path d="M596.377 701.788C597.516 700.079 598.478 698.314 599.356 696.503C601.036 698.688 602.717 700.882 604.407 703.067C605.649 704.683 607.843 704.86 609.057 703.067C610.617 700.761 612.157 698.436 613.698 696.12C614.118 695.485 615.481 692.45 616.266 692.254C617.984 691.825 618.899 693.814 619.403 694.906C620.804 697.95 622.055 700.163 625.323 701.34C626.164 701.638 627.405 701.321 627.984 700.649C629.077 699.379 629.843 698.156 630.422 696.578C631.159 694.533 631.822 690.975 634.409 692.758C636.566 694.243 636.659 696.82 639.824 697.25C643.186 697.707 644.811 692.787 641.281 692.03C639.498 691.647 638.592 688.855 637.341 687.632C636.024 686.344 634.371 685.578 632.504 685.727C627.219 686.157 627.051 691.199 625.314 694.906C623.988 693.104 623.269 689.985 621.952 688.575C620.533 687.044 618.591 685.895 616.443 686.082C614.174 686.278 612.811 687.81 611.578 689.537C609.814 692.021 608.142 694.598 606.489 697.166C604.519 694.719 602.549 692.264 600.569 689.827C599.281 688.249 596.872 689.322 596.312 690.938C595.256 693.954 593.865 696.68 592.222 699.397C590.606 702.059 594.715 704.3 596.386 701.788H596.377Z" fill="#F0FF00"/>
<path d="M261.058 689.136C263.486 687.539 264.186 684.224 261.833 682.086C259.919 680.349 256.763 680.396 253.719 680.825C254.671 679.004 255.409 677.062 255.904 674.952C256.286 673.318 255.101 671.441 253.27 671.534C251.45 671.628 249.676 671.59 247.901 671.432C250.282 667.939 254.522 664.933 250.609 660.357C247.126 656.296 239.834 657.239 234.101 658.126C235.613 654.895 237.135 651.674 238.62 648.443C239.881 645.698 235.875 643.344 234.483 646.071C232.121 650.712 229.852 655.399 227.48 660.031C226.649 661.665 227.648 664.064 229.74 663.915C232.849 663.682 243.97 661.086 245.782 664.064C246.884 665.876 244.727 666.987 243.485 668.546C242.402 669.9 241.655 671.17 241.328 672.898C241.076 674.252 241.701 675.923 243.233 676.212C245.352 676.614 247.435 676.847 249.535 676.941C248.676 679.004 247.491 680.863 245.875 682.618C244.437 684.177 245.306 687.511 247.808 687.231C249.825 686.997 251.851 686.764 253.868 686.54C254.736 686.437 255.605 686.344 256.464 686.241C256.735 686.297 256.959 686.306 257.174 686.288C256.8 688.351 258.826 690.62 261.058 689.154V689.136Z" fill="#333333"/>
<path d="M95.2517 647.901C98.772 647.752 98.8093 642.448 95.2517 642.457C91.6568 642.467 84.0467 641.057 81.8618 645.044C80.9654 646.678 81.2735 648.601 81.9925 650.208C82.3473 651.001 82.8329 651.645 83.3464 652.336C85.2513 654.923 84.2895 654.111 82.1326 653.69C78.6497 653.009 74.3544 651.347 72.0294 655.268C70.386 658.042 71.4318 662.477 72.5896 666.38C69.8537 665.82 67.0805 666.063 64.8395 668.276C63.5323 669.555 62.6825 671.338 62.7572 673.187C62.8319 674.924 66.7444 679.938 65.7079 680.769C63.5229 682.525 66.4362 686.194 68.7146 684.607C70.8062 683.15 71.6185 681.283 71.077 678.715C70.7595 677.184 69.6016 676.24 69.0787 674.858C67.2766 670.134 72.7951 671.824 75.3068 673.047C77.4545 674.093 79.8635 672.403 79.3313 669.984C78.7524 667.37 78.1735 664.755 77.5945 662.141C77.0156 659.545 76.1379 657.677 79.6488 658.639C82.3567 659.386 85.3447 660.376 87.9872 658.742C90.2095 657.369 90.8351 654.708 89.9761 652.364C89.5839 651.3 89.0143 650.684 88.4074 649.787C87.9778 649.143 87.4269 647.798 86.876 647.994C88.2299 647.313 93.9818 647.967 95.2517 647.91V647.901Z" fill="#F0FF00"/>
<path d="M387.581 7.7688C386.909 9.83239 389.028 11.5412 390.942 11.093C394.948 10.1499 399.421 9.62696 403.277 8.18899C405.556 7.33928 405.397 6.73234 404.846 8.47845C404.519 9.49624 404.024 10.43 403.978 11.5318C403.641 19.2539 414.529 14.6132 414.706 19.8795C414.828 23.3718 420.001 23.3531 420.169 19.8795C420.346 16.4247 418.451 13.2312 415.173 11.9147C413.829 11.3731 411.055 12.0827 410.094 11.4851C409.272 10.9809 410.785 8.50646 410.869 7.3206C411.065 4.34194 408.926 2.39974 406.069 2.241C403.809 2.11028 401.344 3.0627 399.187 3.57626C397.628 3.94976 396.059 4.32326 394.5 4.68743C395.088 3.1374 395.658 1.55936 396.106 0H390.149C390.083 0.158738 390.018 0.308138 389.981 0.429525C389.178 2.87595 388.384 5.32237 387.581 7.7688Z" fill="white"/>
<path d="M394.976 738.802C392.847 737.448 389.514 738.671 387.347 739.091C383.612 739.819 379.887 740.557 376.161 741.304C376.096 739.241 376.049 737.177 375.993 735.104C375.909 732.041 371.156 732.023 371.138 735.104C371.119 738.204 371.119 741.313 371.063 744.413C371.025 746.225 372.772 747.168 374.359 746.888C379.392 745.992 384.593 744.47 389.682 744.031C391.381 743.881 390.812 742.873 391.045 744.161C391.157 744.796 390.494 746.141 390.139 746.991H396.097C396.414 745.879 396.666 744.768 396.806 743.685C397.04 741.827 396.713 739.885 394.986 738.792L394.976 738.802Z" fill="white"/>
</g>
<defs>
<clipPath id="clip0_107_301">
<rect width="747" height="747" fill="white"/>
</clipPath>
</defs>
</svg>
