<svg width="166" height="26" viewBox="0 0 166 26" fill="none" xmlns="http://www.w3.org/2000/svg">
<g clip-path="url(#clip0_41_816)">
<path d="M2.48358 3.69101V13.2622H14.6414V15.4898H2.48358V25.8282H0V1.4604H16.119V3.68804H2.48358V3.69101Z" fill="#1FB7F8"/>
<path d="M20.7518 0H23.1354V25.8252H20.7518V0Z" fill="#1FB7F8"/>
<path d="M45.7048 7.51828V25.8252H43.4213V22.4838C42.7954 23.5976 41.9323 24.4626 40.8348 25.0758C39.7374 25.6919 38.4856 25.997 37.0737 25.997C34.7673 25.997 32.9497 25.3305 31.6178 23.9945C30.286 22.6615 29.6201 20.7064 29.6201 18.1292V7.51828H32.0037V17.8922C32.0037 19.8177 32.4609 21.2811 33.3812 22.2764C34.2986 23.2747 35.6076 23.7724 37.3109 23.7724C39.1686 23.7724 40.6348 23.1858 41.7094 22.0157C42.784 20.8427 43.3213 19.2134 43.3213 17.125V7.51828H45.7048Z" fill="#1FB7F8"/>
<path d="M61.6895 24.7114C61.2408 25.1291 60.6863 25.449 60.0261 25.6682C59.3659 25.8874 58.6771 26 57.9598 26C56.3022 26 55.0275 25.5349 54.1301 24.6077C53.2356 23.6805 52.7869 22.3682 52.7869 20.6738V9.6067H49.6288V7.51829H52.7869V3.51624H55.1704V7.51829H60.5434V9.6067H55.1704V20.5346C55.1704 21.6247 55.4333 22.4541 55.9592 23.0229C56.4851 23.5917 57.2396 23.876 58.2256 23.876C58.7172 23.876 59.1944 23.7961 59.6517 23.6331C60.109 23.4702 60.5091 23.2391 60.8435 22.937L61.6837 24.7114H61.6895Z" fill="#1FB7F8"/>
<path d="M74.8505 24.7114C74.4018 25.1291 73.8473 25.449 73.1871 25.6682C72.5269 25.8874 71.8382 26 71.1208 26C69.4632 26 68.1885 25.5349 67.2911 24.6077C66.3966 23.6805 65.9479 22.3682 65.9479 20.6738V9.6067H62.7898V7.51829H65.9479V3.51624H68.3314V7.51829H73.7044V9.6067H68.3314V20.5346C68.3314 21.6247 68.5944 22.4541 69.1202 23.0229C69.6461 23.5917 70.4006 23.876 71.3866 23.876C71.8782 23.876 72.3555 23.7961 72.8127 23.6331C73.27 23.4702 73.6701 23.2391 74.0045 22.937L74.8448 24.7114H74.8505Z" fill="#1FB7F8"/>
<path d="M93.9246 17.439H79.1489C79.2832 19.3408 79.9891 20.8782 81.2638 22.0513C82.5384 23.2243 84.1503 23.8079 86.0995 23.8079C87.1969 23.8079 88.2029 23.6035 89.1204 23.1977C90.0378 22.7918 90.8323 22.1935 91.5039 21.4055L92.8472 23.0051C92.0641 23.9797 91.0838 24.7233 89.9092 25.2328C88.7345 25.7423 87.4399 25.997 86.0309 25.997C84.2189 25.997 82.6099 25.5971 81.2123 24.7973C79.8119 23.9975 78.723 22.8896 77.9371 21.4736C77.154 20.0576 76.7625 18.458 76.7625 16.6718C76.7625 14.8855 77.1368 13.2829 77.8885 11.8699C78.6373 10.4539 79.669 9.35194 80.978 8.56397C82.2869 7.77601 83.7588 7.37906 85.3936 7.37906C87.0283 7.37906 88.4945 7.77304 89.792 8.56397C91.0895 9.35194 92.1098 10.451 92.8472 11.8521C93.5845 13.2562 93.9561 14.8618 93.9561 16.6718L93.9218 17.439H93.9246ZM81.1123 11.1915C79.9577 12.3172 79.3032 13.7835 79.1489 15.5935H91.6754C91.5182 13.7835 90.8637 12.3172 89.712 11.1915C88.5573 10.0659 87.1198 9.50302 85.3964 9.50302C83.673 9.50302 82.2669 10.0659 81.1152 11.1915H81.1123Z" fill="#1FB7F8"/>
<path d="M103.613 8.3181C104.722 7.6901 106.091 7.37906 107.726 7.37906V9.78147L107.154 9.74593C105.297 9.74593 103.842 10.3384 102.787 11.5203C101.735 12.7053 101.21 14.3641 101.21 16.497V25.8252H98.826V7.51829H101.11V11.1027C101.67 9.87331 102.504 8.94611 103.61 8.3181H103.613Z" fill="#1FB7F8"/>
<path d="M122.642 20.0991C121.776 20.9967 120.581 21.5506 119.261 21.5506C116.62 21.5506 114.479 19.3319 114.479 16.5947C114.479 13.8576 116.62 11.6388 119.261 11.6388C120.581 11.6388 121.776 12.1928 122.642 13.0904L125.551 10.0777C123.942 8.40994 121.718 7.3761 119.261 7.3761C114.348 7.3761 110.367 11.5026 110.367 16.5947C110.367 21.6869 114.348 25.8134 119.261 25.8134C121.716 25.8134 123.942 24.7825 125.551 23.1118L122.642 20.0991Z" fill="white"/>
<path d="M157.103 7.3761C152.19 7.3761 148.209 11.5026 148.209 16.5947V25.8134H152.322V16.5947C152.322 13.8576 154.462 11.6388 157.103 11.6388C159.744 11.6388 161.885 13.8576 161.885 16.5947V25.8134H165.997V16.5947C165.997 11.5026 162.016 7.3761 157.103 7.3761Z" fill="white"/>
<path d="M138.132 16.5947C138.132 17.9041 137.109 18.9646 135.845 18.9646C134.582 18.9646 133.559 17.9041 133.559 16.5947C133.559 15.2854 134.582 14.2249 135.845 14.2249C137.109 14.2249 138.132 15.2854 138.132 16.5947Z" fill="#1FB7F8"/>
<path d="M148.08 10.4569C148.055 10.4006 147.995 10.368 147.938 10.368L142.807 10.7857L145.082 5.89199C145.108 5.83274 145.097 5.76461 145.051 5.72018C145.005 5.67574 144.937 5.66685 144.882 5.69648C143.053 6.7392 140.301 8.29144 139.995 8.43659C138.758 7.75823 137.346 7.37313 135.845 7.37313C130.933 7.37313 126.951 11.4996 126.951 16.5918C126.951 21.6839 130.933 25.8104 135.845 25.8104C140.758 25.8104 144.739 21.6839 144.739 16.5918C144.739 15.7534 144.631 14.9418 144.428 14.1716L148.046 10.6228C148.092 10.5783 148.103 10.5132 148.078 10.4539L148.08 10.4569ZM135.848 21.5506C133.208 21.5506 131.067 19.3319 131.067 16.5947C131.067 13.8576 133.208 11.6388 135.848 11.6388C138.489 11.6388 140.63 13.8576 140.63 16.5947C140.63 19.3319 138.489 21.5506 135.848 21.5506Z" fill="white"/>
</g>
<defs>
<clipPath id="clip0_41_816">
<rect width="166" height="26" fill="white"/>
</clipPath>
</defs>
</svg>
