<svg width="141" height="40" viewBox="0 0 141 40" fill="none" xmlns="http://www.w3.org/2000/svg">
<g clip-path="url(#clip0_41_1041)">
<path d="M41.2763 38.0978V39.8855H32.0521V23.4274H33.9584V38.0978H41.2763Z" fill="white"/>
<path d="M53.9522 34.405H43.7015C44.0343 36.8268 45.8222 38.3547 48.253 38.3547C49.804 38.3547 51.1604 37.8128 52.1362 36.8016L53.1626 37.8854C51.9726 39.2011 50.2073 39.9525 48.1092 39.9525C44.415 39.9525 41.8657 37.391 41.8657 33.6983C41.8657 30.0055 44.4404 27.4441 48.0866 27.4441C52.1418 27.4245 54.144 30.1983 53.9522 34.405ZM52.2856 32.9022C52.1644 30.5279 50.5457 29.0251 48.0895 29.0251C45.7066 29.0251 43.9892 30.553 43.7015 32.9022H52.2856Z" fill="white"/>
<path d="M64.2762 37.9776C63.2751 39.3184 61.679 39.9748 59.6768 39.9748C57.0796 39.9748 55.4102 38.3296 55.4102 36.1899C55.4102 34.0279 57.1501 32.6648 60.1055 32.6396H64.2283V31.9106C64.2283 30.1005 63.0862 29.0167 60.8669 29.0167C59.4851 29.0167 58.1963 29.5335 56.8878 30.4273L56.1011 29.0865C57.7197 28.0279 59.0818 27.4189 61.225 27.4189C64.3242 27.4189 66.0387 29.0391 66.0613 31.6955L66.0867 39.877H64.2762V37.9776ZM64.2509 35.6033V34.1201H60.3423C58.2471 34.1201 57.1473 34.7569 57.1473 36.1201C57.1473 37.4832 58.2696 38.377 60.0321 38.377C62.1556 38.3798 63.7771 37.3212 64.2509 35.6033Z" fill="white"/>
<path d="M80.8748 32.2402V39.8798H79.0164V32.7318C79.0164 30.5446 77.6825 29.2541 75.466 29.2541C72.9872 29.2765 71.4616 30.8743 71.2473 33.2262V39.8798H69.3889V27.4916H71.2473V30.2178C72.13 28.3351 73.822 27.4441 76.109 27.4189C79.1123 27.4217 80.8748 29.2569 80.8748 32.2402Z" fill="white"/>
<path d="M98.0571 25.7765L96.9121 27.2123C95.6262 25.919 93.813 25.1424 91.98 25.1424C88.2124 25.1424 85.1866 28.0112 85.1866 31.6313C85.1866 35.229 88.2124 38.1201 91.98 38.1201C93.8158 38.1201 95.6037 37.3687 96.9121 36.1452L98.0796 37.4385C96.4356 38.9693 94.1937 39.9776 91.8841 39.9776C87.0703 39.9776 83.2549 36.2849 83.2549 31.6313C83.2549 27.0223 87.1183 23.3771 91.9546 23.3771C94.2416 23.3799 96.4581 24.2961 98.0571 25.7765Z" fill="white"/>
<path d="M111.83 33.676C111.83 37.391 109.185 39.9525 105.465 39.9525C101.746 39.9525 99.1005 37.391 99.1005 33.676C99.1005 29.9832 101.746 27.4469 105.465 27.4469C109.185 27.4441 111.83 29.9832 111.83 33.676ZM100.959 33.6983C100.959 36.4246 102.843 38.3072 105.462 38.3072C108.085 38.3072 109.966 36.4274 109.966 33.6983C109.966 30.9944 108.082 29.1145 105.462 29.1145C102.843 29.1145 100.959 30.9944 100.959 33.6983Z" fill="white"/>
<path d="M126.266 39.8827H124.407V37.2263C123.477 38.9665 121.762 39.9777 119.52 39.9777C115.944 39.9777 113.466 37.3688 113.466 33.676C113.466 29.9609 115.944 27.3995 119.498 27.3995C121.739 27.3995 123.477 28.4107 124.407 30.1732V22.4386H126.266V39.8827ZM124.407 33.7235C124.407 31.0196 122.523 29.0671 119.878 29.0671C117.208 29.0671 115.327 31.0196 115.327 33.7235C115.327 36.4051 117.211 38.3325 119.878 38.3325C122.523 38.3325 124.407 36.4051 124.407 33.7235Z" fill="white"/>
<path d="M140.986 34.405H130.735C131.068 36.8268 132.859 38.3547 135.287 38.3547C136.838 38.3547 138.197 37.8128 139.17 36.8016L140.196 37.8854C139.006 39.2011 137.241 39.9525 135.143 39.9525C131.449 39.9525 128.899 37.391 128.899 33.6983C128.899 30.0055 131.474 27.4441 135.123 27.4441C139.176 27.4245 141.175 30.1983 140.986 34.405ZM139.316 32.9022C139.195 30.5279 137.577 29.0251 135.12 29.0251C132.737 29.0251 131.02 30.553 130.732 32.9022H139.316Z" fill="white"/>
<path d="M25.3123 1.55307V8.73184C25.3123 10.324 25.4167 11.0223 24.1618 12.2821C23.8008 12.6425 23.4201 12.9246 23.0197 13.1425C22.3711 13.3911 21.7168 13.3547 20.727 13.3547H18.9589H16.999H12.9889C12.1147 13.3547 11.3984 14.0503 11.3984 14.9022V24.1844C11.3984 25.0391 12.1119 25.7374 12.9889 25.7374H15.73H20.2279H23.0366C23.9108 25.7374 24.6214 25.0419 24.6214 24.1844V17.0056C24.6214 15.4134 24.5143 14.7151 25.772 13.4553C26.1301 13.095 26.5136 12.8128 26.9141 12.595C27.5627 12.3464 28.2169 12.3827 29.2067 12.3827H30.9749H32.932H36.9364C37.8106 12.3827 38.524 11.6872 38.524 10.8352V1.55307C38.524 0.698324 37.8106 0 36.9364 0H34.1953H29.6974H26.8915C26.023 0 25.3123 0.698324 25.3123 1.55307Z" fill="white"/>
<path d="M1.3818 28.028H9.70362C10.4707 28.028 11.0939 28.6425 11.0939 29.3967V37.7263C11.0939 38.4805 10.4735 39.0922 9.70362 39.0922H1.3818C0.61758 39.0922 0 38.4805 0 37.7263V29.3967C0 28.6425 0.61476 28.028 1.3818 28.028Z" fill="white"/>
</g>
<defs>
<clipPath id="clip0_41_1041">
<rect width="141" height="40" fill="white"/>
</clipPath>
</defs>
</svg>
