<svg width="133" height="40" viewBox="0 0 133 40" fill="none" xmlns="http://www.w3.org/2000/svg">
<g clip-path="url(#clip0_41_1021)">
<mask id="mask0_41_1021" style="mask-type:luminance" maskUnits="userSpaceOnUse" x="0" y="0" width="133" height="40">
<path d="M133 0H0V40H133V0Z" fill="white"/>
</mask>
<g mask="url(#mask0_41_1021)">
<path d="M63.3724 8.66501C62.1926 8.07154 60.8944 7.71545 59.3603 7.71545H54.1678H52.0436V31.6917H54.2858V22.5523H60.3042C61.6024 22.5523 62.7827 22.1962 63.8446 21.6027C64.9069 21.0092 65.615 20.0597 66.2047 18.9914C66.7949 17.9232 67.0312 16.6176 67.0312 15.1932C67.0312 13.7689 66.6769 12.4632 66.0868 11.2763C65.3787 10.208 64.5527 9.37718 63.3724 8.66501ZM63.6087 19.1101C62.7827 20.0597 61.6024 20.6531 60.3042 20.6531H54.2858V9.73327H59.4782C60.5401 9.73327 61.4845 9.97065 62.3105 10.4454C63.1365 10.9202 63.8446 11.5137 64.1989 12.3446C64.5527 13.1754 64.9069 14.125 64.9069 15.1932C64.9069 16.855 64.4348 18.1606 63.6087 19.1101Z" fill="white"/>
<path d="M79.7765 15.193C78.8321 14.5995 77.5339 14.2434 75.9998 14.2434C75.0559 14.2434 74.1119 14.3621 73.4038 14.5995C72.6957 14.8369 71.8697 15.3117 71.2796 15.7864C70.6894 16.3799 70.0993 16.9734 69.5092 17.8043L71.3975 18.6351C71.8697 17.8043 72.4594 17.0921 73.2859 16.736C74.1119 16.2612 75.0559 16.1425 76.1178 16.1425C77.1801 16.1425 78.1241 16.3799 78.8321 16.8547C79.5402 17.3295 80.0124 18.0416 80.3662 18.9912C80.6026 19.7034 80.8384 20.5342 80.8384 21.6025H75.7639C73.7576 21.6025 72.2236 22.0773 71.0433 23.0268C69.8634 23.9763 69.3912 25.282 69.3912 26.9437C69.3912 28.6054 69.9814 29.9111 71.0433 30.7419C72.2236 31.6915 73.7576 32.1663 75.7639 32.1663C78.0061 32.1663 79.6582 31.4541 80.9564 30.0298C81.0743 29.9111 81.0743 29.7924 81.1927 29.7924L81.3106 31.8102H82.9627V22.552C82.9627 20.6529 82.7268 19.1099 82.2546 17.9229C81.5465 16.736 80.7205 15.7864 79.7765 15.193ZM80.7205 24.4511C80.7205 25.6381 80.4846 26.5876 80.1304 27.5372C79.6582 28.368 79.0685 29.0802 78.3604 29.555C77.6523 30.0298 76.59 30.2672 75.5281 30.2672C74.2298 30.2672 73.1675 29.9111 72.4594 29.3176C71.7514 28.7241 71.3975 27.8933 71.3975 26.825C71.3975 25.7568 71.7514 24.9259 72.4594 24.2137C73.1675 23.5016 74.3478 23.2642 75.9998 23.2642H80.8384L80.7205 24.4511Z" fill="white"/>
<path d="M94.6458 30.1484C94.4099 30.2671 94.174 30.2671 93.8198 30.2671C92.8758 30.2671 92.1678 30.0297 91.6956 29.4362C91.2234 28.9614 90.8695 28.2493 90.8695 27.2997V16.3798H96.2979V14.4807H90.8695V9.25818H88.8632V14.5994H85.795V16.4985H88.8632V27.4184C88.8632 28.9614 89.3354 30.1484 90.1615 30.9792C91.1054 31.8101 92.2857 32.2849 93.8198 32.2849C94.292 32.2849 94.6458 32.2849 95.118 32.1662C95.4718 32.0475 96.062 31.8101 96.6521 31.454L95.8261 29.6736C95.3539 29.911 94.8817 30.1484 94.6458 30.1484Z" fill="white"/>
<path d="M102.198 17.6858V14.5998H100.193V31.6918H102.198V22.0775C102.198 20.6532 102.553 19.4662 103.143 18.6354C103.733 17.8045 104.441 17.2111 105.385 16.855C106.329 16.4989 107.273 16.3802 108.217 16.3802V14.4811C107.037 14.4811 105.857 14.7185 104.677 15.3119C103.733 15.9054 102.906 16.6176 102.198 17.6858Z" fill="white"/>
<path d="M122.851 15.4304C121.553 14.7182 120.137 14.2434 118.484 14.2434C116.832 14.2434 115.416 14.5995 114.118 15.4304C112.82 16.1425 111.876 17.2108 111.168 18.6351C110.459 19.9408 110.106 21.4838 110.106 23.2642C110.106 25.0446 110.459 26.5876 111.168 27.8933C111.876 29.1989 112.82 30.2672 114.118 31.098C115.416 31.8102 116.832 32.285 118.484 32.285C120.137 32.285 121.553 31.9289 122.733 31.098C123.913 30.2672 124.975 29.3176 125.683 27.8933C126.391 26.5876 126.745 25.0446 126.745 23.2642C126.745 21.4838 126.391 19.9408 125.683 18.6351C125.093 17.2108 124.031 16.1425 122.851 15.4304ZM123.913 26.9437C123.323 28.012 122.615 28.8428 121.671 29.4363C120.727 30.0298 119.664 30.3858 118.484 30.3858C117.304 30.3858 116.124 30.0298 115.18 29.4363C114.236 28.8428 113.528 28.012 112.938 26.9437C112.348 25.8755 112.112 24.6885 112.112 23.2642C112.112 21.8399 112.348 20.6529 112.938 19.5847C113.528 18.5164 114.236 17.6856 115.18 17.0921C116.124 16.4986 117.186 16.1425 118.484 16.1425C119.664 16.1425 120.845 16.4986 121.789 17.0921C122.733 17.6856 123.441 18.5164 124.031 19.5847C124.621 20.6529 124.857 21.8399 124.857 23.2642C124.857 24.6885 124.503 25.8755 123.913 26.9437Z" fill="white"/>
<path d="M130.994 7.83386L130.876 31.8101H133V7.83386H130.994Z" fill="white"/>
<path d="M33.2794 33.2344H2.95024C2.24217 33.2344 1.65211 32.6409 1.77012 31.9288L5.90055 4.27301C6.25459 1.78042 8.37883 0 10.8571 0H25.2546C27.7328 0 29.8571 1.78042 30.2111 4.27301L34.3416 31.9288C34.5776 32.6409 33.9875 33.2344 33.2794 33.2344Z" fill="#F0FF00"/>
<path d="M11.5651 13.7689H13.5713C13.9254 13.7689 14.2794 14.125 14.2794 14.4811V16.4989C14.2794 16.8549 13.9254 17.211 13.5713 17.211H11.5651C11.2111 17.211 10.8571 16.8549 10.8571 16.4989V14.4811C10.8571 14.0063 11.2111 13.7689 11.5651 13.7689Z" fill="#1D1D1B"/>
<path d="M7.78877 17.9236H9.79498C10.149 17.9236 10.5031 18.2797 10.5031 18.6358V20.6535C10.5031 21.0096 10.149 21.3657 9.79498 21.3657H7.78877C7.43473 21.3657 7.08069 21.0096 7.08069 20.6535V18.6358C7.19872 18.2797 7.43473 17.9236 7.78877 17.9236Z" fill="#1D1D1B"/>
<path d="M11.5651 22.0773H13.5713C13.9254 22.0773 14.2794 22.4334 14.2794 22.7894V24.8072C14.2794 25.1633 13.9254 25.5194 13.5713 25.5194H11.5651C11.2111 25.5194 10.8571 25.1633 10.8571 24.8072V22.7894C10.8571 22.3147 11.2111 22.0773 11.5651 22.0773Z" fill="#1D1D1B"/>
<path d="M24.6645 3.79846H22.6583C22.3042 3.79846 21.9502 4.15455 21.9502 4.51064V6.52845C21.9502 6.88453 22.3042 7.24062 22.6583 7.24062H24.6645C25.0185 7.24062 25.3726 6.88453 25.3726 6.52845V4.39194C25.3726 4.03585 25.0185 3.79846 24.6645 3.79846Z" fill="#1D1D1B"/>
<path d="M28.4409 7.95312H26.4346C26.0806 7.95312 25.7266 8.30921 25.7266 8.66529V10.6831C25.7266 11.0391 26.0806 11.3952 26.4346 11.3952H28.4409C28.7949 11.3952 29.1489 11.0391 29.1489 10.6831V8.66529C29.0309 8.30921 28.7949 7.95312 28.4409 7.95312Z" fill="#1D1D1B"/>
<path d="M24.6645 12.1069H22.6583C22.3042 12.1069 21.9502 12.463 21.9502 12.8191V14.8369C21.9502 15.193 22.3042 15.5491 22.6583 15.5491H24.6645C25.0185 15.5491 25.3726 15.193 25.3726 14.8369V12.8191C25.3726 12.3443 25.0185 12.1069 24.6645 12.1069Z" fill="#1D1D1B"/>
<path d="M17.1116 4.39221H19.1179C19.4719 4.39221 19.8259 4.7483 19.8259 5.10438V28.8433C19.8259 29.1994 19.4719 29.5555 19.1179 29.5555H17.1116C16.7576 29.5555 16.4036 29.1994 16.4036 28.8433V5.10438C16.5216 4.6296 16.7576 4.39221 17.1116 4.39221Z" fill="#1D1D1B"/>
<path d="M35.0497 39.9996H1.18012C0.47205 39.9996 0 39.5249 0 38.8127V37.3884C0 36.6762 0.47205 36.2014 1.18012 36.2014H35.0497C35.7578 36.2014 36.2298 36.6762 36.2298 37.3884V38.8127C36.2298 39.4062 35.7578 39.9996 35.0497 39.9996Z" fill="#F0FF00"/>
</g>
</g>
<defs>
<clipPath id="clip0_41_1021">
<rect width="133" height="40" fill="white"/>
</clipPath>
</defs>
</svg>
