<?xml version="1.0" encoding="UTF-8" standalone="no"?>
<svg
   width="37"
   height="40"
   viewBox="0 0 37.000001 40"
   fill="none"
   version="1.1"
   id="svg17"
   sodipodi:docname="patrol_icon.svg"
   inkscape:version="1.4.2 (ebf0e940d0, 2025-05-08)"
   xmlns:inkscape="http://www.inkscape.org/namespaces/inkscape"
   xmlns:sodipodi="http://sodipodi.sourceforge.net/DTD/sodipodi-0.dtd"
   xmlns="http://www.w3.org/2000/svg"
   xmlns:svg="http://www.w3.org/2000/svg">
  <sodipodi:namedview
     id="namedview17"
     pagecolor="#ffffff"
     bordercolor="#666666"
     borderopacity="1.0"
     inkscape:showpageshadow="2"
     inkscape:pageopacity="0.0"
     inkscape:pagecheckerboard="0"
     inkscape:deskcolor="#d1d1d1"
     inkscape:zoom="4.7025259"
     inkscape:cx="29.345931"
     inkscape:cy="36.469762"
     inkscape:window-width="1920"
     inkscape:window-height="1008"
     inkscape:window-x="1920"
     inkscape:window-y="550"
     inkscape:window-maximized="1"
     inkscape:current-layer="svg17" />
  <g
     clip-path="url(#clip0_41_1021)"
     id="g17"
     transform="translate(0.34099831)">
    <mask
       id="mask0_41_1021"
       maskUnits="userSpaceOnUse"
       x="0"
       y="0"
       width="133"
       height="40">
      <path
         d="M 133,0 H 0 v 40 h 133 z"
         fill="#ffffff"
         id="path1" />
    </mask>
    <g
       mask="url(#mask0_41_1021)"
       id="g16">
      <path
         d="M 63.3724,8.66501 C 62.1926,8.07154 60.8944,7.71545 59.3603,7.71545 H 54.1678 52.0436 V 31.6917 h 2.2422 v -9.1394 h 6.0184 c 1.2982,0 2.4785,-0.3561 3.5404,-0.9496 1.0623,-0.5935 1.7704,-1.543 2.3601,-2.6113 0.5902,-1.0682 0.8265,-2.3738 0.8265,-3.7982 0,-1.4243 -0.3543,-2.73 -0.9444,-3.9169 C 65.3787,10.208 64.5527,9.37718 63.3724,8.66501 Z m 0.2363,10.44509 c -0.826,0.9496 -2.0063,1.543 -3.3045,1.543 H 54.2858 V 9.73327 h 5.1924 c 1.0619,0 2.0063,0.23738 2.8323,0.71213 0.826,0.4748 1.5341,1.0683 1.8884,1.8992 0.3538,0.8308 0.708,1.7804 0.708,2.8486 0,1.6618 -0.4721,2.9674 -1.2982,3.9169 z"
         fill="#ffffff"
         id="path2" />
      <path
         d="m 79.7765,15.193 c -0.9444,-0.5935 -2.2426,-0.9496 -3.7767,-0.9496 -0.9439,0 -1.8879,0.1187 -2.596,0.3561 -0.7081,0.2374 -1.5341,0.7122 -2.1242,1.1869 -0.5902,0.5935 -1.1803,1.187 -1.7704,2.0179 l 1.8883,0.8308 c 0.4722,-0.8308 1.0619,-1.543 1.8884,-1.8991 0.826,-0.4748 1.77,-0.5935 2.8319,-0.5935 1.0623,0 2.0063,0.2374 2.7143,0.7122 0.7081,0.4748 1.1803,1.1869 1.5341,2.1365 0.2364,0.7122 0.4722,1.543 0.4722,2.6113 h -5.0745 c -2.0063,0 -3.5403,0.4748 -4.7206,1.4243 -1.1799,0.9495 -1.6521,2.2552 -1.6521,3.9169 0,1.6617 0.5902,2.9674 1.6521,3.7982 1.1803,0.9496 2.7143,1.4244 4.7206,1.4244 2.2422,0 3.8943,-0.7122 5.1925,-2.1365 0.1179,-0.1187 0.1179,-0.2374 0.2363,-0.2374 l 0.1179,2.0178 h 1.6521 V 22.552 c 0,-1.8991 -0.2359,-3.4421 -0.7081,-4.6291 -0.7081,-1.1869 -1.5341,-2.1365 -2.4781,-2.7299 z m 0.944,9.2581 c 0,1.187 -0.2359,2.1365 -0.5901,3.0861 -0.4722,0.8308 -1.0619,1.543 -1.77,2.0178 -0.7081,0.4748 -1.7704,0.7122 -2.8323,0.7122 -1.2983,0 -2.3606,-0.3561 -3.0687,-0.9496 -0.708,-0.5935 -1.0619,-1.4243 -1.0619,-2.4926 0,-1.0682 0.3539,-1.8991 1.0619,-2.6113 0.7081,-0.7121 1.8884,-0.9495 3.5404,-0.9495 h 4.8386 z"
         fill="#ffffff"
         id="path3" />
      <path
         d="m 94.6458,30.1484 c -0.2359,0.1187 -0.4718,0.1187 -0.826,0.1187 -0.944,0 -1.652,-0.2374 -2.1242,-0.8309 -0.4722,-0.4748 -0.8261,-1.1869 -0.8261,-2.1365 V 16.3798 h 5.4284 V 14.4807 H 90.8695 V 9.25818 H 88.8632 V 14.5994 H 85.795 v 1.8991 h 3.0682 v 10.9199 c 0,1.543 0.4722,2.73 1.2983,3.5608 0.9439,0.8309 2.1242,1.3057 3.6583,1.3057 0.4722,0 0.826,0 1.2982,-0.1187 0.3538,-0.1187 0.944,-0.3561 1.5341,-0.7122 l -0.826,-1.7804 c -0.4722,0.2374 -0.9444,0.4748 -1.1803,0.4748 z"
         fill="#ffffff"
         id="path4" />
      <path
         d="m 102.198,17.6858 v -3.086 h -2.005 v 17.092 h 2.005 v -9.6143 c 0,-1.4243 0.355,-2.6113 0.945,-3.4421 0.59,-0.8309 1.298,-1.4243 2.242,-1.7804 0.944,-0.3561 1.888,-0.4748 2.832,-0.4748 v -1.8991 c -1.18,0 -2.36,0.2374 -3.54,0.8308 -0.944,0.5935 -1.771,1.3057 -2.479,2.3739 z"
         fill="#ffffff"
         id="path5" />
      <path
         d="m 122.851,15.4304 c -1.298,-0.7122 -2.714,-1.187 -4.367,-1.187 -1.652,0 -3.068,0.3561 -4.366,1.187 -1.298,0.7121 -2.242,1.7804 -2.95,3.2047 -0.709,1.3057 -1.062,2.8487 -1.062,4.6291 0,1.7804 0.353,3.3234 1.062,4.6291 0.708,1.3056 1.652,2.3739 2.95,3.2047 1.298,0.7122 2.714,1.187 4.366,1.187 1.653,0 3.069,-0.3561 4.249,-1.187 1.18,-0.8308 2.242,-1.7804 2.95,-3.2047 0.708,-1.3057 1.062,-2.8487 1.062,-4.6291 0,-1.7804 -0.354,-3.3234 -1.062,-4.6291 -0.59,-1.4243 -1.652,-2.4926 -2.832,-3.2047 z m 1.062,11.5133 c -0.59,1.0683 -1.298,1.8991 -2.242,2.4926 -0.944,0.5935 -2.007,0.9495 -3.187,0.9495 -1.18,0 -2.36,-0.356 -3.304,-0.9495 -0.944,-0.5935 -1.652,-1.4243 -2.242,-2.4926 -0.59,-1.0682 -0.826,-2.2552 -0.826,-3.6795 0,-1.4243 0.236,-2.6113 0.826,-3.6795 0.59,-1.0683 1.298,-1.8991 2.242,-2.4926 0.944,-0.5935 2.006,-0.9496 3.304,-0.9496 1.18,0 2.361,0.3561 3.305,0.9496 0.944,0.5935 1.652,1.4243 2.242,2.4926 0.59,1.0682 0.826,2.2552 0.826,3.6795 0,1.4243 -0.354,2.6113 -0.944,3.6795 z"
         fill="#ffffff"
         id="path6" />
      <path
         d="M 130.994,7.83386 130.876,31.8101 H 133 V 7.83386 Z"
         fill="#ffffff"
         id="path7" />
      <path
         d="M 33.2794,33.2344 H 2.95024 c -0.70807,0 -1.29813,-0.5935 -1.18012,-1.3056 L 5.90055,4.27301 C 6.25459,1.78042 8.37883,0 10.8571,0 h 14.3975 c 2.4782,0 4.6025,1.78042 4.9565,4.27301 l 4.1305,27.65579 c 0.236,0.7121 -0.3541,1.3056 -1.0622,1.3056 z"
         fill="#f0ff00"
         id="path8" />
      <path
         d="m 11.5651,13.7689 h 2.0062 c 0.3541,0 0.7081,0.3561 0.7081,0.7122 v 2.0178 c 0,0.356 -0.354,0.7121 -0.7081,0.7121 h -2.0062 c -0.354,0 -0.708,-0.3561 -0.708,-0.7121 v -2.0178 c 0,-0.4748 0.354,-0.7122 0.708,-0.7122 z"
         fill="#1d1d1b"
         id="path9" />
      <path
         d="m 7.78877,17.9236 h 2.00621 c 0.35402,0 0.70812,0.3561 0.70812,0.7122 v 2.0177 c 0,0.3561 -0.3541,0.7122 -0.70812,0.7122 H 7.78877 c -0.35404,0 -0.70808,-0.3561 -0.70808,-0.7122 v -2.0177 c 0.11803,-0.3561 0.35404,-0.7122 0.70808,-0.7122 z"
         fill="#1d1d1b"
         id="path10" />
      <path
         d="m 11.5651,22.0773 h 2.0062 c 0.3541,0 0.7081,0.3561 0.7081,0.7121 v 2.0178 c 0,0.3561 -0.354,0.7122 -0.7081,0.7122 h -2.0062 c -0.354,0 -0.708,-0.3561 -0.708,-0.7122 v -2.0178 c 0,-0.4747 0.354,-0.7121 0.708,-0.7121 z"
         fill="#1d1d1b"
         id="path11" />
      <path
         d="m 24.6645,3.79846 h -2.0062 c -0.3541,0 -0.7081,0.35609 -0.7081,0.71218 v 2.01781 c 0,0.35608 0.354,0.71217 0.7081,0.71217 h 2.0062 c 0.354,0 0.7081,-0.35609 0.7081,-0.71217 V 4.39194 c 0,-0.35609 -0.3541,-0.59348 -0.7081,-0.59348 z"
         fill="#1d1d1b"
         id="path12" />
      <path
         d="m 28.4409,7.95312 h -2.0063 c -0.354,0 -0.708,0.35609 -0.708,0.71217 v 2.01781 c 0,0.356 0.354,0.7121 0.708,0.7121 h 2.0063 c 0.354,0 0.708,-0.3561 0.708,-0.7121 V 8.66529 c -0.118,-0.35608 -0.354,-0.71217 -0.708,-0.71217 z"
         fill="#1d1d1b"
         id="path13" />
      <path
         d="m 24.6645,12.1069 h -2.0062 c -0.3541,0 -0.7081,0.3561 -0.7081,0.7122 v 2.0178 c 0,0.3561 0.354,0.7122 0.7081,0.7122 h 2.0062 c 0.354,0 0.7081,-0.3561 0.7081,-0.7122 v -2.0178 c 0,-0.4748 -0.3541,-0.7122 -0.7081,-0.7122 z"
         fill="#1d1d1b"
         id="path14" />
      <path
         d="m 17.1116,4.39221 h 2.0063 c 0.354,0 0.708,0.35609 0.708,0.71217 V 28.8433 c 0,0.3561 -0.354,0.7122 -0.708,0.7122 h -2.0063 c -0.354,0 -0.708,-0.3561 -0.708,-0.7122 V 5.10438 c 0.118,-0.47478 0.354,-0.71217 0.708,-0.71217 z"
         fill="#1d1d1b"
         id="path15" />
      <path
         d="M 35.0497,39.9996 H 1.18012 C 0.47205,39.9996 0,39.5249 0,38.8127 v -1.4243 c 0,-0.7122 0.47205,-1.187 1.18012,-1.187 H 35.0497 c 0.7081,0 1.1801,0.4748 1.1801,1.187 v 1.4243 c 0,0.5935 -0.472,1.1869 -1.1801,1.1869 z"
         fill="#f0ff00"
         id="path16" />
    </g>
  </g>
  <defs
     id="defs17">
    <clipPath
       id="clip0_41_1021">
      <rect
         width="133"
         height="40"
         fill="#ffffff"
         id="rect17"
         x="0"
         y="0" />
    </clipPath>
  </defs>
</svg>
