<svg width="246" height="246" viewBox="0 0 246 246" fill="none" xmlns="http://www.w3.org/2000/svg">
<path d="M147.94 48.4087V78.0341C147.94 84.6055 148.367 87.4899 143.215 92.6841C141.738 94.1698 140.174 95.3409 138.522 96.2301C135.853 97.2602 133.173 97.1084 129.104 97.1084H121.84H113.789H97.3376C93.7497 97.1084 90.8071 99.9821 90.8071 103.495V141.807C90.8071 145.331 93.7387 148.215 97.3376 148.215H108.594H127.069H138.599C142.187 148.215 145.107 145.342 145.107 141.807V112.181C145.107 105.61 144.67 102.726 149.833 97.5313C151.299 96.0457 152.874 94.8746 154.525 93.9854C157.195 92.9552 159.875 93.1071 163.944 93.1071H171.207H179.247H195.688C199.276 93.1071 202.208 90.2334 202.208 86.72V48.4087C202.208 44.8845 199.276 42 195.688 42H184.432H165.967H154.449C150.861 42 147.94 44.8845 147.94 48.4087Z" fill="black"/>
<path d="M49.6772 157.682H83.8499C87.0003 157.682 89.56 160.22 89.56 163.332V197.707C89.56 200.819 87.0112 203.346 83.8499 203.346H49.6772C46.5378 203.346 44 200.819 44 197.707V163.332C44 160.22 46.5269 157.682 49.6772 157.682Z" fill="black"/>
</svg>
